<?xml version="1.0" encoding="UTF-8" standalone="no"?>
<!-- Created with Inkscape (http://www.inkscape.org/) -->

<svg
   xmlns:dc="http://purl.org/dc/elements/1.1/"
   xmlns:cc="http://creativecommons.org/ns#"
   xmlns:rdf="http://www.w3.org/1999/02/22-rdf-syntax-ns#"
   xmlns:svg="http://www.w3.org/2000/svg"
   xmlns="http://www.w3.org/2000/svg"
   xmlns:sodipodi="http://sodipodi.sourceforge.net/DTD/sodipodi-0.dtd"
   xmlns:inkscape="http://www.inkscape.org/namespaces/inkscape"
   width="744.09448"
   height="1052.3622"
   id="svg3387"
   version="1.1"
   inkscape:version="0.48.4 r9939"
   sodipodi:docname="drupalcamp_front_a4_v1.svg">
  <defs
     id="defs3389" />
  <sodipodi:namedview
     id="base"
     pagecolor="#ffffff"
     bordercolor="#666666"
     borderopacity="1.0"
     inkscape:pageopacity="0.0"
     inkscape:pageshadow="2"
     inkscape:zoom="0.71"
     inkscape:cx="-10.915496"
     inkscape:cy="539.84635"
     inkscape:document-units="px"
     inkscape:current-layer="layer1"
     showgrid="false"
     inkscape:window-width="1920"
     inkscape:window-height="1026"
     inkscape:window-x="0"
     inkscape:window-y="24"
     inkscape:window-maximized="1" />
  <metadata
     id="metadata3392">
    <rdf:RDF>
      <cc:Work
         rdf:about="">
        <dc:format>image/svg+xml</dc:format>
        <dc:type
           rdf:resource="http://purl.org/dc/dcmitype/StillImage" />
        <dc:title />
      </cc:Work>
    </rdf:RDF>
  </metadata>
  <g
     inkscape:label="Layer 1"
     inkscape:groupmode="layer"
     id="layer1"
     transform="translate(0,3.2302534e-5)">
    <g
       id="g3573"
       transform="matrix(3.4299212,0,0,3.4299212,-516.20396,-1555.1474)">
      <path
         inkscape:connector-curvature="0"
         id="path3220"
         d="m 229.97081,720.14851 8.4425,0 0,-45.1275 -8.4425,0 0,45.1275 z"
         style="fill:#f8252a;stroke:none" />
      <path
         inkscape:connector-curvature="0"
         id="path3222"
         d="m 278.39831,720.14851 8.4425,0 0,-43.3675 -8.4425,0 0,43.3675 z"
         style="fill:#f8252a;stroke:none" />
      <path
         inkscape:connector-curvature="0"
         id="path3224"
         d="m 229.97206,708.84601 56.87,0 0,26.44125 c -8.09625,-4.4425 -17.39375,-6.97125 -27.28125,-6.97125 -10.3825,0 -20.11125,2.78875 -28.485,7.6525 l -1.10375,0 0,-27.1225 z"
         style="fill:#f8252a;stroke:none" />
      <path
         inkscape:connector-curvature="0"
         id="path3226"
         d="m 258.78581,671.25351 c 4.2775,0 7.745,3.46625 7.745,7.74375 0,4.28 -3.4675,7.74625 -7.745,7.74625 -4.2775,0 -7.74375,-3.46625 -7.74375,-7.74625 0,-4.2775 3.46625,-7.74375 7.74375,-7.74375 z"
         style="fill:#f8252a;stroke:none" />
      <path
         inkscape:connector-curvature="0"
         id="path3228"
         d="m 258.78581,690.08726 c 4.2775,0 7.745,3.46625 7.745,7.74375 0,4.2775 -3.4675,7.74625 -7.745,7.74625 -4.2775,0 -7.74375,-3.46875 -7.74375,-7.74625 0,-4.2775 3.46625,-7.74375 7.74375,-7.74375 z"
         style="fill:#f8252a;stroke:none" />
      <path
         inkscape:connector-curvature="0"
         id="path3230"
         d="m 199.91456,756.05226 c 5.69375,-10.1925 16.58625,-17.085 29.09125,-17.085 12.505,0 23.3975,6.8925 29.09125,17.085 -7.92375,-2.95375 -18.0525,-4.72875 -29.09125,-4.72875 -11.0375,0 -21.16625,1.775 -29.09125,4.72875 z"
         style="fill:#f8252a;stroke:none" />
      <path
         inkscape:connector-curvature="0"
         id="path3232"
         d="m 259.18081,756.05226 c 5.69375,-10.1925 16.58625,-17.085 29.09125,-17.085 12.50375,0 23.3975,6.8925 29.09,17.085 -7.92375,-2.95375 -18.0525,-4.72875 -29.09,-4.72875 -11.03875,0 -21.16625,1.775 -29.09125,4.72875 z"
         style="fill:#f8252a;stroke:none" />
      <path
         inkscape:connector-curvature="0"
         id="path3234"
         d="m 286.77081,720.86601 c 7.03,-3.9275 11.78375,-11.44 11.78375,-20.06375 0,-8.62375 -4.75375,-16.13625 -11.78375,-20.0625 2.03625,5.465 3.26125,12.45 3.26125,20.0625 0,7.6125 -1.225,14.59875 -3.26125,20.06375 z"
         style="fill:#f8252a;stroke:none" />
      <path
         inkscape:connector-curvature="0"
         id="path3236"
         d="m 229.97081,720.86601 c -7.03,-3.9275 -11.78375,-11.44 -11.78375,-20.06375 0,-8.62375 4.75375,-16.13625 11.78375,-20.0625 -2.0375,5.465 -3.26125,12.45 -3.26125,20.0625 0,7.6125 1.22375,14.59875 3.26125,20.06375 z"
         style="fill:#f8252a;stroke:none" />
      <path
         inkscape:connector-curvature="0"
         id="path3238"
         d="m 222.70706,660.71976 -4.85,5.13625 19.20875,21.81375 12.7925,-14.01125 c -10.13875,-2.12375 -19.395,-6.64125 -27.15125,-12.93875 z"
         style="fill:#f8252a;stroke:none" />
      <path
         inkscape:connector-curvature="0"
         id="path3240"
         d="m 295.10706,660.71976 4.85,5.13625 -19.20875,21.81375 -12.79375,-14.01125 c 10.14,-2.12375 19.39625,-6.64125 27.1525,-12.93875 z"
         style="fill:#f8252a;stroke:none" />
      <g
         transform="matrix(1.25,0,0,1.25,-106.09669,168.09351)"
         id="g3242">
        <path
           inkscape:connector-curvature="0"
           id="path3244"
           d="m 291.902,247.716 c 7.108,22.447 39.235,73.465 44.159,93.204 l -0.004,-0.003 c 1.242,4.161 1.911,8.57 1.911,13.134 0,25.329 -20.533,45.862 -45.862,45.862 -25.33,0 -45.863,-20.533 -45.863,-45.862 0,-9.247 2.739,-17.852 7.445,-25.055 10.041,-16.644 32.127,-62.061 38.214,-81.28 z"
           style="fill:#1b89d7;stroke:none" />
        <path
           inkscape:connector-curvature="0"
           id="path3246"
           d="m 246.512,359.094 c -5.001,-0.614 -8.56,-5.166 -7.946,-10.168 0.613,-5.002 5.166,-8.56 10.168,-7.947 l -0.614,5.007 c -2.237,-0.274 -4.273,1.317 -4.548,3.554 -0.274,2.237 1.318,4.274 3.554,4.548 l -0.614,5.006 z"
           style="fill:#1b89d7;stroke:none" />
        <path
           inkscape:connector-curvature="0"
           id="path3248"
           d="m 337.596,359.094 c 5.002,-0.614 8.56,-5.166 7.947,-10.168 -0.613,-5.002 -5.166,-8.56 -10.168,-7.947 l 0.614,5.007 c 2.236,-0.274 4.273,1.317 4.547,3.554 0.275,2.237 -1.317,4.274 -3.553,4.548 l 0.613,5.006 z"
           style="fill:#1b89d7;stroke:none" />
        <path
           inkscape:connector-curvature="0"
           id="path3250"
           d="m 301.685,357.62 c -0.055,-5.039 -4.185,-9.08 -9.224,-9.026 -5.039,0.055 -9.08,4.185 -9.025,9.224 l 5.044,-0.055 c -0.025,-2.253 1.783,-4.1 4.036,-4.125 2.254,-0.024 4.102,1.783 4.126,4.037 l 5.043,-0.055 z"
           style="fill:#ffffff;stroke:none" />
        <path
           inkscape:connector-curvature="0"
           id="path3252"
           d="m 283.386,346.986 c 5.855,-4.182 11.173,-4.508 17.799,0.088 3.359,2.33 5.966,4.688 10.458,4.688 6.469,0 11.715,-5.246 11.715,-11.715 0,-6.469 -7.304,-11.716 -11.715,-11.716 -3.954,0 -5.781,1.203 -8.899,3.015 -7.958,4.625 -12.72,5.065 -20.27,0.31 -3.246,-2.044 -5.622,-3.325 -9.718,-3.325 -4.411,0 -11.715,5.247 -11.715,11.716 0,6.469 5.246,11.715 11.715,11.715 4.558,0 7.255,-2.365 10.63,-4.776 z"
           style="fill:#ffffff;stroke:none" />
        <path
           inkscape:connector-curvature="0"
           id="path3254"
           d="m 321.884,366.327 c 3.386,-0.469 6.812,-2.644 10.276,-6.551 -1.954,11.527 -7.658,19.359 -20.073,19.195 -6.018,-0.08 -13.658,-3.147 -17.456,-7.992 -3.022,-3.854 -3.925,-10.31 0.6,-13.219 1.824,-1.175 5.087,-1.031 8.024,-0.35 3.294,0.763 5.607,1.941 7.76,4.061 3.177,3.131 5.867,5.55 10.869,4.856 z"
           style="fill:#ffffff;stroke:none" />
        <path
           inkscape:connector-curvature="0"
           id="path3256"
           d="m 262.138,366.327 c -3.387,-0.469 -6.813,-2.644 -10.278,-6.551 1.955,11.527 7.659,19.359 20.074,19.195 6.018,-0.08 13.657,-3.147 17.455,-7.992 3.023,-3.854 3.926,-10.31 -0.599,-13.219 -1.824,-1.175 -5.088,-1.031 -8.025,-0.35 -3.292,0.763 -5.607,1.941 -7.758,4.061 -3.179,3.131 -5.868,5.55 -10.869,4.856 z"
           style="fill:#ffffff;stroke:none" />
        <path
           inkscape:connector-curvature="0"
           id="path3258"
           d="m 289.673,383.238 c -5.023,-0.074 -9.045,-4.196 -8.991,-9.222 l 5.044,0.055 c -0.024,2.223 1.736,4.051 3.947,4.123 l 0,5.044 z"
           style="fill:#ffffff;stroke:none" />
        <path
           inkscape:connector-curvature="0"
           id="path3260"
           d="m 294.511,383.238 c 5.023,-0.074 9.045,-4.196 8.991,-9.222 l -5.044,0.055 c 0.024,2.223 -1.736,4.051 -3.947,4.123 l 0,5.044 z"
           style="fill:#ffffff;stroke:none" />
        <path
           inkscape:connector-curvature="0"
           id="path3262"
           d="m 289.673,378.194 5.065,0 0,5.037 -5.065,0 0,-5.037 z"
           style="fill:#ffffff;stroke:none" />
        <path
           inkscape:connector-curvature="0"
           id="path3264"
           d="m 252.849,330.329 c 0,-19.635 0,-39.271 0,-58.908 2.53,17.328 24.766,33.107 39.652,38.05 -7.164,6.953 -32.49,13.906 -39.652,20.858 z"
           style="fill:#1b89d7;stroke:none" />
        <path
           inkscape:connector-curvature="0"
           id="path3266"
           d="m 283.075,325.388 c -0.054,-5.039 -4.184,-9.081 -9.223,-9.026 -5.039,0.055 -9.08,4.185 -9.026,9.223 l 5.044,-0.054 c -0.024,-2.253 1.784,-4.101 4.037,-4.125 2.254,-0.025 4.101,1.783 4.126,4.036 l 5.042,-0.054 z"
           style="fill:#ffffff;stroke:none" />
        <path
           inkscape:connector-curvature="0"
           id="path3268"
           d="m 331.379,330.329 c 0,-19.635 0,-39.271 0,-58.908 -2.53,17.328 -24.767,33.107 -39.652,38.05 7.163,6.953 32.489,13.906 39.652,20.858 z"
           style="fill:#1b89d7;stroke:none" />
        <path
           inkscape:connector-curvature="0"
           id="path3270"
           d="m 318.357,325.388 c -0.054,-5.039 -4.184,-9.081 -9.223,-9.026 -5.039,0.055 -9.08,4.185 -9.026,9.223 l 5.044,-0.054 c -0.024,-2.253 1.783,-4.101 4.037,-4.125 2.254,-0.025 4.101,1.783 4.126,4.036 l 5.042,-0.054 z"
           style="fill:#ffffff;stroke:none" />
        <path
           inkscape:connector-curvature="0"
           id="path3272"
           d="m 282.878,243.519 c 2.232,0 3.847,14.962 -0.123,14.962 -3.414,0 -2.083,-14.962 0.123,-14.962 z"
           style="fill:#00ccff;stroke:none" />
        <path
           inkscape:connector-curvature="0"
           id="path3274"
           d="m 291.548,228.672 c 2.232,0 3.847,14.962 -0.123,14.962 -3.414,0 -2.083,-14.962 0.123,-14.962 z"
           style="fill:#00ccff;stroke:none" />
        <path
           inkscape:connector-curvature="0"
           id="path3276"
           d="m 276.389,256.184 c 2.233,0 3.848,14.962 -0.122,14.962 -3.415,0 -2.084,-14.962 0.122,-14.962 z"
           style="fill:#00ccff;stroke:none" />
        <path
           inkscape:connector-curvature="0"
           id="path3278"
           d="m 269.901,268.849 c 2.232,0 3.847,14.962 -0.123,14.962 -3.414,0 -2.084,-14.962 0.123,-14.962 z"
           style="fill:#1b89d7;stroke:none" />
        <path
           inkscape:connector-curvature="0"
           id="path3280"
           d="m 282.878,243.519 c 2.232,0 3.847,14.962 -0.123,14.962 -3.414,0 -2.083,-14.962 0.123,-14.962 z"
           style="fill:#1b89d7;stroke:none" />
        <path
           inkscape:connector-curvature="0"
           id="path3282"
           d="m 276.389,256.184 c 2.233,0 3.848,14.962 -0.122,14.962 -3.415,0 -2.084,-14.962 0.122,-14.962 z"
           style="fill:#1b89d7;stroke:none" />
        <path
           inkscape:connector-curvature="0"
           id="path3284"
           d="m 300.319,243.519 c -2.232,0 -3.847,14.962 0.123,14.962 3.414,0 2.083,-14.962 -0.123,-14.962 z"
           style="fill:#00ccff;stroke:none" />
        <path
           inkscape:connector-curvature="0"
           id="path3286"
           d="m 291.649,228.672 c -2.232,0 -3.847,14.962 0.123,14.962 3.414,0 2.083,-14.962 -0.123,-14.962 z"
           style="fill:#1b89d7;stroke:none" />
        <path
           inkscape:connector-curvature="0"
           id="path3288"
           d="m 306.808,256.184 c -2.233,0 -3.848,14.962 0.122,14.962 3.415,0 2.084,-14.962 -0.122,-14.962 z"
           style="fill:#00ccff;stroke:none" />
        <path
           inkscape:connector-curvature="0"
           id="path3290"
           d="m 313.296,268.849 c -2.232,0 -3.847,14.962 0.123,14.962 3.414,0 2.083,-14.962 -0.123,-14.962 z"
           style="fill:#1b89d7;stroke:none" />
        <path
           inkscape:connector-curvature="0"
           id="path3292"
           d="m 300.319,243.519 c -2.232,0 -3.847,14.962 0.123,14.962 3.414,0 2.083,-14.962 -0.123,-14.962 z"
           style="fill:#1b89d7;stroke:none" />
        <path
           inkscape:connector-curvature="0"
           id="path3294"
           d="m 306.808,256.184 c -2.233,0 -3.848,14.962 0.122,14.962 3.415,0 2.084,-14.962 -0.122,-14.962 z"
           style="fill:#1b89d7;stroke:none" />
      </g>
    </g>
  </g>
</svg>
