<?xml version="1.0" encoding="UTF-8" standalone="no"?>
<!-- Created with Inkscape (http://www.inkscape.org/) -->

<svg
   xmlns:dc="http://purl.org/dc/elements/1.1/"
   xmlns:cc="http://creativecommons.org/ns#"
   xmlns:rdf="http://www.w3.org/1999/02/22-rdf-syntax-ns#"
   xmlns:svg="http://www.w3.org/2000/svg"
   xmlns="http://www.w3.org/2000/svg"
   xmlns:sodipodi="http://sodipodi.sourceforge.net/DTD/sodipodi-0.dtd"
   xmlns:inkscape="http://www.inkscape.org/namespaces/inkscape"
   width="744.09448"
   height="524.40942"
   id="svg3651"
   version="1.1"
   inkscape:version="0.48.4 r9939"
   sodipodi:docname="drupalcamp_back_a5_v1.svg">
  <defs
     id="defs3653" />
  <sodipodi:namedview
     id="base"
     pagecolor="#ffffff"
     bordercolor="#666666"
     borderopacity="1.0"
     inkscape:pageopacity="0.0"
     inkscape:pageshadow="2"
     inkscape:zoom="0.7"
     inkscape:cx="-56.769536"
     inkscape:cy="263.13286"
     inkscape:document-units="px"
     inkscape:current-layer="g3837"
     showgrid="false"
     inkscape:window-width="1920"
     inkscape:window-height="1026"
     inkscape:window-x="0"
     inkscape:window-y="24"
     inkscape:window-maximized="1" />
  <metadata
     id="metadata3656">
    <rdf:RDF>
      <cc:Work
         rdf:about="">
        <dc:format>image/svg+xml</dc:format>
        <dc:type
           rdf:resource="http://purl.org/dc/dcmitype/StillImage" />
        <dc:title />
      </cc:Work>
    </rdf:RDF>
  </metadata>
  <g
     inkscape:label="Layer 1"
     inkscape:groupmode="layer"
     id="layer1"
     transform="translate(0,-527.95272)">
    <g
       id="g3837"
       transform="matrix(1.4670158,0,0,1.4670158,-179.88212,-383.03202)">
      <path
         inkscape:connector-curvature="0"
         id="path3296"
         d="m 155.23548,702.37706 -13.2425,61.93 14.02125,0 0.77875,-3.895 c 2.09375,1.785 4.13875,3.09875 6.11875,3.9275 1.99625,0.8275 3.91125,1.24875 5.76125,1.2325 2.41875,-0.0162 4.73875,-0.61625 7.01125,-1.8175 2.25625,-1.18375 4.38125,-2.87125 6.39375,-5.04625 1.99625,-2.175 3.83,-4.755 5.485,-7.725 1.65625,-2.97 3.08375,-6.2325 4.30125,-9.8025 1.20125,-3.57125 2.12625,-7.35125 2.79125,-11.3275 0.65,-3.99375 0.99,-8.0825 0.99,-12.28625 0.0162,-2.75875 -0.2425,-5.43625 -0.7625,-8 -0.52,-2.58125 -1.395,-4.9825 -2.63,-7.19 -1.2325,-2.2075 -2.92125,-4.13875 -5.06375,-5.81 -2.14125,-1.65625 -4.81875,-2.95375 -8.0325,-3.87875 -3.2125,-0.925 -7.07625,-1.395 -11.555,-1.4125 -3.2775,0.0175 -6.54,0.47125 -9.8025,1.39625 -3.24625,0.90875 -6.32875,2.175 -9.25,3.78125 -2.92125,1.62375 -5.51875,3.48875 -7.77375,5.63125 -2.27263,2.1425 -4.05763,4.43125 -5.3555,6.8975 -1.29888,2.4675 -1.96363,4.99875 -1.99613,7.6125 0,2.32 0.40588,4.17 1.2005,5.565 0.81175,1.38 1.97988,2.38625 3.5385,2.9875 1.5415,0.6 3.44013,0.9075 5.68013,0.89125 -0.0487,-0.25875 -0.17875,-0.6 -0.39,-1.005 -0.2275,-0.40625 -0.43875,-1.02375 -0.65,-1.8825 -0.19375,-0.86125 -0.3075,-2.11 -0.32375,-3.73375 0.0162,-3.71625 0.64875,-7.0275 1.8825,-9.9475 1.25,-2.92125 3.035,-5.38875 5.33875,-7.43375 2.32125,-2.045 5.09625,-3.6025 8.31,-4.67375 3.21375,-1.07 6.8,-1.60625 10.76,-1.60625 2.79125,0 5.0625,0.4225 6.8325,1.265 1.7525,0.845 3.13125,2.0775 4.09,3.7175 0.95625,1.6225 1.6225,3.61875 1.99625,5.98875 0.35625,2.3525 0.535,5.0625 0.51875,8.11375 0,3.1325 -0.195,6.345 -0.58375,9.6075 -0.37375,3.27875 -0.9425,6.49125 -1.6875,9.64 -0.7475,3.1325 -1.65625,6.08625 -2.7275,8.845 -1.0875,2.75875 -2.30375,5.1925 -3.7,7.28625 -1.38,2.11 -2.92125,3.76625 -4.5925,4.96625 -1.6725,1.185 -3.47375,1.80125 -5.405,1.8175 -0.92375,0 -1.85,-0.14625 -2.775,-0.45375 -0.925,-0.32375 -1.85,-0.81125 -2.775,-1.49375 l 11.685,-54.62625 -14.41125,1.9475 z m 49.36875,13.2425 -10.3225,48.6875 14.0225,0 8.08125,-38.17125 c 0.73125,-0.68125 1.42875,-1.24875 2.09375,-1.72 0.65,-0.45375 1.3475,-0.81125 2.07875,-1.03875 0.745,-0.2425 1.59,-0.35625 2.54625,-0.35625 0.56875,0.0163 0.95875,0.24375 1.18625,0.665 0.2275,0.42125 0.38875,0.9575 0.48625,1.59125 0.11375,0.63125 0.27625,1.265 0.47,1.89875 0.21125,0.6475 0.585,1.1675 1.10375,1.60625 0.53625,0.42125 1.33125,0.64875 2.4025,0.665 1.2,-0.0162 2.24,-0.24375 3.1475,-0.71375 0.91,-0.455 1.6725,-1.055 2.28875,-1.80125 0.6175,-0.76375 1.0875,-1.57375 1.39625,-2.45125 0.30875,-0.8925 0.47125,-1.76875 0.47125,-2.62875 0,-1.25 -0.2925,-2.3375 -0.845,-3.2625 -0.55125,-0.925 -1.3625,-1.655 -2.40125,-2.17375 -1.04,-0.52 -2.305,-0.79625 -3.765,-0.79625 -1.36375,0.0163 -2.71,0.2275 -4.025,0.65 -1.315,0.43875 -2.58,1.005 -3.83,1.73625 -1.25,0.74625 -2.4675,1.5575 -3.635,2.4825 l 1.07,-4.86875 -14.02125,0 z m 63.2925,0 -7.01,33.1075 c -0.2925,1.16875 -0.48625,2.24 -0.58375,3.21375 -1.235,1.00625 -2.435,1.83375 -3.60375,2.4825 -1.185,0.665 -2.2875,1.00625 -3.31,1.0225 -1.2825,0 -2.28875,-0.1625 -2.98625,-0.4875 -0.71375,-0.3075 -1.2175,-0.745 -1.49375,-1.2975 -0.27625,-0.5525 -0.405,-1.20125 -0.38875,-1.915 0,-0.43875 0.0487,-0.925 0.1125,-1.42875 0.0813,-0.51875 0.17875,-1.05375 0.27625,-1.59 l 7.01125,-33.1075 -14.0225,0 -7.01,33.1075 c -0.38875,1.85 -0.58375,3.505 -0.58375,4.96625 0.0162,2.435 0.5025,4.43 1.4925,6.005 0.97375,1.5575 2.37,2.72625 4.1875,3.4725 1.81625,0.7625 3.975,1.13625 6.49125,1.13625 1.41125,-0.0163 2.905,-0.40625 4.47875,-1.16875 1.57375,-0.7625 3.18125,-1.7525 4.80375,-2.98625 1.6225,-1.23375 3.1975,-2.58 4.73875,-4.02375 0.30875,1.8825 0.97375,3.42375 2.02875,4.625 1.03875,1.21625 2.4025,2.11 4.09,2.69375 1.6875,0.5675 3.635,0.86 5.85875,0.86 1.26625,-0.0163 2.6125,-0.34125 4.04125,-0.97375 1.41125,-0.64875 2.85625,-1.49375 4.3175,-2.5475 1.47625,-1.055 2.92,-2.24 4.34875,-3.5225 1.4275,-1.28125 2.79125,-2.56375 4.09,-3.87875 1.28125,-1.2975 2.46625,-2.53125 3.5375,-3.6675 1.07125,-1.12 1.98,-2.07625 2.7425,-2.84 l -3.31125,0 c -0.9725,0.79625 -2.0125,1.6875 -3.09875,2.66125 -1.0875,0.9575 -2.2075,1.89875 -3.3275,2.79125 -1.12,0.8925 -2.24,1.64 -3.32625,2.22375 -1.08875,0.5675 -2.12625,0.87625 -3.1,0.8925 -1.2825,0 -2.28875,-0.1625 -2.98625,-0.4875 -0.71375,-0.3075 -1.2175,-0.745 -1.49375,-1.2975 -0.27625,-0.5525 -0.40625,-1.20125 -0.39,-1.915 0,-0.43875 0.0488,-0.925 0.11375,-1.42875 0.0813,-0.51875 0.17875,-1.05375 0.27625,-1.59 l 7.01125,-33.1075 -14.0225,0 z m 24.53875,0 -15.4825,73.03125 14.70375,-3.48875 5.06375,-23.77625 c 1.46,0.925 2.95375,1.65625 4.4625,2.1575 1.52625,0.50375 3.08375,0.76375 4.69,0.76375 2.5,0.0163 4.86875,-0.47125 7.0925,-1.44375 2.24,-0.975 4.3,-2.54875 6.16625,-4.74 1.86625,-2.17375 3.49,-5.06375 4.85375,-8.665 1.37875,-3.60375 2.45,-8.01875 3.21375,-13.24375 0.19375,-1.26625 0.34,-2.46625 0.43625,-3.60375 0.0975,-1.135 0.14625,-2.20625 0.14625,-3.22875 0,-3.34375 -0.535,-6.005 -1.60625,-8.0175 -1.0875,-2.0125 -2.72625,-3.45625 -4.93375,-4.34875 -2.19125,-0.87625 -4.9825,-1.315 -8.3575,-1.29875 -1.21625,0 -2.4025,0.1625 -3.55375,0.47125 -1.1525,0.30875 -2.24,0.74625 -3.2625,1.28125 l 0.39,-1.85 -14.0225,0 z m 11.88,41.48125 c -0.52,0.0163 -1.13625,-0.0163 -1.8175,-0.065 -0.6825,-0.0487 -1.4125,-0.21125 -2.175,-0.455 -0.77875,-0.24125 -1.55875,-0.66375 -2.33625,-1.2325 l 7.01125,-32.79875 c 0.92375,-0.64875 1.84875,-1.1525 2.77375,-1.50875 0.925,-0.3575 1.85,-0.5525 2.775,-0.5525 1.05625,-0.0163 1.98,0.14625 2.80875,0.52 0.81,0.3725 1.46,1.055 1.93125,2.0775 0.47,1.02125 0.71375,2.49875 0.71375,4.43 0,1.16875 -0.0975,2.56375 -0.30875,4.20375 -0.195,1.6225 -0.51875,3.52125 -0.9575,5.66375 -0.795,3.86125 -1.5575,7.075 -2.305,9.62375 -0.72875,2.56375 -1.4925,4.57625 -2.2875,6.0525 -0.77875,1.4775 -1.655,2.5325 -2.5975,3.15 -0.94,0.615 -2.0125,0.9075 -3.22875,0.89125 z m 57.45,-41.48125 -0.58375,2.5325 c -0.8925,-0.7475 -1.915,-1.33125 -3.05,-1.76875 -1.1375,-0.43875 -2.28875,-0.65 -3.47375,-0.66625 -3.24625,0.0163 -6.11875,0.53625 -8.65,1.5575 -2.5325,1.02375 -4.74,2.45125 -6.62125,4.26875 -1.8825,1.8025 -3.47375,3.91125 -4.78875,6.29625 -1.31375,2.38625 -2.36875,4.95 -3.16375,7.69375 -0.795,2.7425 -1.38,5.56625 -1.7525,8.455 -0.3575,2.8725 -0.53625,5.72875 -0.53625,8.53625 -0.0162,1.46125 0.17875,2.905 0.56875,4.34875 0.38875,1.46125 1.055,2.77625 1.96375,3.99375 0.90875,1.2 2.15875,2.175 3.71625,2.90375 1.5575,0.73125 3.505,1.10375 5.82625,1.12125 1.97875,-0.0325 3.78125,-0.4225 5.42,-1.18625 1.63875,-0.76125 3.11625,-1.7525 4.415,-2.9525 1.2975,-1.2175 2.43375,-2.48375 3.4075,-3.8475 0.64875,2.5325 1.99625,4.39875 4.04125,5.6 2.045,1.21625 4.6575,1.8175 7.83875,1.80125 1.265,-0.0163 2.6125,-0.34125 4.04,-0.97375 1.4125,-0.64875 2.8575,-1.49375 4.3175,-2.5475 1.4775,-1.055 2.92125,-2.22375 4.34875,-3.50625 1.42875,-1.28125 2.7925,-2.58 4.09,-3.895 1.2825,-1.2975 2.4675,-2.53125 3.53875,-3.6675 1.07,-1.13625 1.98,-2.07625 2.7425,-2.84 l -3.31125,0 c -0.97375,0.79625 -2.0125,1.6875 -3.1,2.66125 -1.08625,0.9575 -2.2075,1.89875 -3.32625,2.79125 -1.12,0.8925 -2.24,1.64 -3.3275,2.22375 -1.08625,0.5675 -2.12625,0.87625 -3.09875,0.8925 -1.2825,0 -2.28875,-0.1625 -2.98625,-0.4875 -0.71375,-0.3075 -1.2175,-0.745 -1.49375,-1.2975 -0.275,-0.5525 -0.405,-1.20125 -0.38875,-1.915 0,-0.43875 0.0488,-0.925 0.11375,-1.42875 0.08,-0.51875 0.1775,-1.05375 0.275,-1.59 l 7.01125,-33.1075 -14.0225,0 z m -6.32875,5.55 c 0.69875,-0.0163 1.46,0.11375 2.305,0.3575 0.8425,0.26 1.67125,0.73 2.46625,1.39625 l -5.4525,25.80375 c -0.2925,1.16875 -0.4875,2.24 -0.585,3.21375 -0.61625,0.925 -1.265,1.73625 -1.9475,2.46625 -0.665,0.74625 -1.3625,1.315 -2.0775,1.75375 -0.72875,0.42 -1.46,0.63125 -2.20625,0.6475 -0.84375,0.0163 -1.6875,-0.14625 -2.54875,-0.48625 -0.86,-0.35625 -1.59,-1.03875 -2.175,-2.04375 -0.59875,-0.99125 -0.9075,-2.45125 -0.92375,-4.3825 0,-2.6775 0.2275,-5.35625 0.665,-8.06625 0.4375,-2.71 1.055,-5.30625 1.85,-7.77375 0.81125,-2.45 1.7525,-4.6575 2.84,-6.58875 1.10375,-1.93125 2.30375,-3.4575 3.62,-4.57625 1.31375,-1.12 2.71,-1.705 4.17,-1.72125 z m 35.25,-23.07625 -10.80875,50.63375 c -0.39,1.85 -0.585,3.505 -0.585,4.96625 0.0163,2.435 0.50375,4.43 1.46125,6.005 0.97375,1.5575 2.35375,2.72625 4.155,3.4725 1.80125,0.7625 3.94375,1.13625 6.45875,1.13625 1.265,-0.0163 2.61375,-0.34125 4.04125,-0.97375 1.41125,-0.64875 2.85625,-1.49375 4.31625,-2.5475 1.4775,-1.055 2.9225,-2.24 4.35,-3.5225 1.4275,-1.28125 2.79125,-2.56375 4.08875,-3.87875 1.28375,-1.2975 2.4675,-2.53125 3.53875,-3.6675 1.07125,-1.12 1.98,-2.07625 2.7425,-2.84 l -3.31,0 c -0.975,0.79625 -2.0125,1.6875 -3.10125,2.66125 -1.08625,0.9575 -2.20625,1.89875 -3.32625,2.79125 -1.12,0.8925 -2.23875,1.64 -3.3275,2.22375 -1.08625,0.5675 -2.125,0.87625 -3.09875,0.8925 -1.25,0 -2.24,-0.1625 -2.95375,-0.455 -0.715,-0.3075 -1.20125,-0.72875 -1.4925,-1.265 -0.2925,-0.53625 -0.43875,-1.16875 -0.4225,-1.8825 0,-0.37375 0.0487,-0.81125 0.13,-1.29875 0.0975,-0.4875 0.21125,-1.1025 0.3575,-1.8175 l 11.1975,-52.58125 -14.41125,1.9475 z m 65.72625,48.68625 c -1.21625,2.0775 -2.775,3.81375 -4.6575,5.19375 -1.8825,1.37875 -3.97625,2.4175 -6.29625,3.115 -2.32125,0.69875 -4.74,1.04 -7.255,1.04 -2.6125,0 -4.755,-0.34125 -6.4425,-1.05625 -1.6875,-0.6975 -2.98625,-1.785 -3.9275,-3.26125 -0.94125,-1.4775 -1.59,-3.36 -1.9475,-5.66375 -0.37375,-2.305 -0.5525,-5.0475 -0.53625,-8.22875 0,-2.92125 0.21125,-5.955 0.63375,-9.13625 0.40625,-3.18125 1.00625,-6.33 1.80125,-9.47875 0.795,-3.13125 1.76875,-6.1175 2.905,-8.92625 1.1525,-2.80625 2.45125,-5.29 3.91125,-7.46375 1.46,-2.19125 3.06625,-3.895 4.80375,-5.145 1.7525,-1.25 3.61875,-1.89875 5.615,-1.915 1.54125,0.0163 2.775,0.30875 3.68375,0.86 0.90875,0.55125 1.575,1.2175 2.01375,2.0125 0.43625,0.795 0.7125,1.5575 0.8425,2.305 0.13,0.745 0.195,1.31375 0.17875,1.73625 0,0.61625 -0.11375,1.34625 -0.325,2.175 -0.21125,0.82625 -0.51875,1.655 -0.9075,2.46625 -0.37375,0.8275 -0.82875,1.54125 -1.3475,2.1425 -0.51875,0.61625 -1.0875,1.005 -1.70375,1.2 0.61625,0.69875 1.265,1.23375 1.91375,1.60625 0.65,0.37375 1.3,0.6175 1.915,0.7475 0.6175,0.13 1.2025,0.17875 1.72125,0.17875 1.655,-0.0163 2.97,-0.40625 3.97625,-1.185 1.005,-0.7625 1.72,-1.8175 2.175,-3.165 0.45375,-1.33 0.68,-2.8725 0.66375,-4.60875 -0.0163,-2.35375 -0.46875,-4.36625 -1.37875,-6.02125 -0.8925,-1.67125 -2.12625,-3.01875 -3.7,-4.04 -1.55875,-1.04 -3.36,-1.8025 -5.38875,-2.2725 -2.0275,-0.4875 -4.18625,-0.715 -6.475,-0.715 -4.3,0.0325 -8.11375,0.73125 -11.425,2.1425 -3.31,1.39625 -6.1675,3.3275 -8.60125,5.79375 -2.41875,2.45125 -4.44625,5.29125 -6.08625,8.48875 -1.655,3.2125 -2.97,6.6375 -3.9425,10.2725 -0.99125,3.65125 -1.68875,7.33625 -2.12625,11.1 -0.43875,3.765 -0.65,7.4175 -0.63375,10.9875 0.0163,3.97625 0.43875,7.40125 1.26625,10.24 0.8275,2.85625 1.9475,5.22625 3.37625,7.125 1.4275,1.8825 3.06625,3.37625 4.885,4.47875 1.83375,1.08875 3.74875,1.86625 5.76,2.32125 2.02875,0.455 4.04125,0.68125 6.0375,0.66625 1.85,0.015 3.79875,-0.13 5.85875,-0.4225 2.06125,-0.2925 4.1225,-0.79625 6.2,-1.50875 2.09375,-0.73125 4.09,-1.7375 6.02,-3.03625 1.915,-1.2975 3.6675,-2.9375 5.2425,-4.93375 1.59,-1.995 2.905,-4.3975 3.94375,-7.2375 l -2.24,-0.97375 z m 30.57625,-31.16 -0.585,2.5325 c -0.8925,-0.7475 -1.915,-1.33125 -3.05,-1.76875 -1.1375,-0.43875 -2.28875,-0.65 -3.47375,-0.66625 -3.24625,0.0163 -6.11875,0.53625 -8.65,1.5575 -2.5325,1.02375 -4.73875,2.45125 -6.62125,4.26875 -1.8825,1.8025 -3.4725,3.91125 -4.78875,6.29625 -1.31375,2.38625 -2.36875,4.95 -3.16375,7.69375 -0.795,2.7425 -1.38,5.56625 -1.7525,8.455 -0.3575,2.8725 -0.53625,5.72875 -0.53625,8.53625 -0.015,1.46125 0.17875,2.905 0.56875,4.34875 0.38875,1.46125 1.055,2.77625 1.96375,3.99375 0.90875,1.2 2.15875,2.175 3.71625,2.90375 1.5575,0.73125 3.505,1.10375 5.82625,1.12125 1.97875,-0.0325 3.78125,-0.4225 5.42,-1.18625 1.63875,-0.76125 3.11625,-1.7525 4.415,-2.9525 1.2975,-1.2175 2.43375,-2.48375 3.4075,-3.8475 0.64875,2.5325 1.99625,4.39875 4.04125,5.6 2.045,1.21625 4.6575,1.8175 7.83875,1.80125 1.265,-0.0163 2.6125,-0.34125 4.04125,-0.97375 1.4125,-0.64875 2.85625,-1.49375 4.31625,-2.5475 1.4775,-1.055 2.92125,-2.22375 4.34875,-3.50625 1.43,-1.28125 2.7925,-2.58 4.09,-3.895 1.2825,-1.2975 2.4675,-2.53125 3.53875,-3.6675 1.07,-1.13625 1.98,-2.07625 2.7425,-2.84 l -3.31125,0 c -0.97375,0.79625 -2.0125,1.6875 -3.1,2.66125 -1.08625,0.9575 -2.20625,1.89875 -3.32625,2.79125 -1.12,0.8925 -2.24,1.64 -3.3275,2.22375 -1.08625,0.5675 -2.12625,0.87625 -3.09875,0.8925 -1.2825,0 -2.28875,-0.1625 -2.98625,-0.4875 -0.71375,-0.3075 -1.2175,-0.745 -1.49375,-1.2975 -0.275,-0.5525 -0.405,-1.20125 -0.38875,-1.915 0,-0.43875 0.0487,-0.925 0.11375,-1.42875 0.0813,-0.51875 0.1775,-1.05375 0.275,-1.59 l 7.01125,-33.1075 -14.02125,0 z m -6.33,5.55 c 0.69875,-0.0163 1.46,0.11375 2.305,0.3575 0.84375,0.26 1.67125,0.73 2.46625,1.39625 l -5.4525,25.80375 c -0.2925,1.16875 -0.4875,2.24 -0.585,3.21375 -0.61625,0.925 -1.265,1.73625 -1.9475,2.46625 -0.665,0.74625 -1.3625,1.315 -2.0775,1.75375 -0.72875,0.42 -1.46,0.63125 -2.20625,0.6475 -0.84375,0.0163 -1.6875,-0.14625 -2.54875,-0.48625 -0.85875,-0.35625 -1.59,-1.03875 -2.175,-2.04375 -0.59875,-0.99125 -0.9075,-2.45125 -0.92375,-4.3825 0,-2.6775 0.2275,-5.35625 0.665,-8.06625 0.4375,-2.71 1.055,-5.30625 1.85,-7.77375 0.81125,-2.45 1.7525,-4.6575 2.84,-6.58875 1.10375,-1.93125 2.30375,-3.4575 3.62,-4.57625 1.31375,-1.12 2.71,-1.705 4.17,-1.72125 z m 90.9475,8.95875 c 0.0487,-0.38875 0.0975,-0.7625 0.13,-1.11875 0.0487,-0.3575 0.065,-0.73125 0.065,-1.12125 -0.0163,-1.67125 -0.34125,-3.245 -0.99,-4.705 -0.64875,-1.4775 -1.525,-2.775 -2.5975,-3.9125 -1.08625,-1.135 -2.2875,-2.02875 -3.6025,-2.66 -1.31375,-0.65 -2.645,-0.975 -4.0075,-0.99125 -1.59125,0.0163 -3.21375,0.325 -4.85375,0.91 -1.63875,0.58375 -3.245,1.3625 -4.83625,2.33625 -1.57375,0.97375 -3.0825,2.02875 -4.5275,3.18125 -0.73,-1.2825 -1.60625,-2.4025 -2.645,-3.36 -1.03875,-0.9575 -2.1575,-1.70375 -3.37625,-2.23875 -1.2,-0.5525 -2.40125,-0.8125 -3.61875,-0.82875 -1.39625,0.0163 -2.82375,0.24375 -4.25125,0.715 -1.42875,0.45375 -2.85625,1.07 -4.2525,1.85 -1.39625,0.77875 -2.75875,1.63875 -4.0575,2.59625 l 1.07125,-5.16125 -14.0225,0 -10.32125,48.6875 14.0225,0 8.37375,-39.33875 c 0.9575,-0.6825 1.89875,-1.20125 2.82375,-1.5425 0.925,-0.34 1.96375,-0.5025 3.11625,-0.5025 1.34625,0.0163 2.4175,0.535 3.23,1.5575 0.81125,1.0225 1.2325,2.41875 1.24875,4.1875 0,0.38875 -0.0162,0.795 -0.065,1.23375 -0.0488,0.42125 -0.13,0.85875 -0.2275,1.2975 l -7.01,33.1075 14.11875,0 7.20625,-34.17875 c 0.0488,-0.34 0.0975,-0.68125 0.13,-1.0225 0.0488,-0.34 0.065,-0.68125 0.065,-1.0225 0,-0.58375 -0.0488,-1.15125 -0.13,-1.70375 -0.0813,-0.5525 -0.21125,-1.11875 -0.3575,-1.70375 0.90875,-0.585 1.8175,-1.0225 2.71125,-1.31375 0.9075,-0.2925 1.88125,-0.43875 2.93625,-0.43875 1.3475,0.0163 2.41875,0.535 3.23,1.5575 0.81125,1.0225 1.2325,2.41875 1.24875,4.1875 0,0.38875 -0.0163,0.795 -0.065,1.23375 -0.0487,0.42125 -0.12875,0.85875 -0.22625,1.2975 l -3.7,17.5275 c -0.195,0.925 -0.34125,1.785 -0.43875,2.59625 -0.0975,0.81125 -0.14625,1.59125 -0.14625,2.37 0.0163,2.435 0.4875,4.43 1.445,6.005 0.9575,1.5575 2.32125,2.72625 4.1225,3.4725 1.80125,0.7625 3.975,1.13625 6.5075,1.13625 1.525,-0.0325 3.08375,-0.4875 4.6575,-1.3625 1.57375,-0.8775 3.13125,-2.0125 4.67375,-3.425 1.5425,-1.4125 3.01875,-2.93875 4.43125,-4.545 1.41125,-1.6225 2.70875,-3.19625 3.91125,-4.70625 1.21625,-1.50875 2.255,-2.80625 3.16375,-3.87875 l -4.57625,0 c -0.5675,1.0725 -1.23375,2.175 -1.99625,3.31125 -0.7625,1.1525 -1.59,2.22375 -2.49875,3.23 -0.8925,0.99 -1.835,1.80125 -2.8075,2.43375 -0.975,0.6175 -1.9475,0.9425 -2.9225,0.9575 -1.02125,0 -1.8325,-0.1775 -2.4175,-0.535 -0.58375,-0.3575 -0.99,-0.82875 -1.23375,-1.42875 -0.22625,-0.6 -0.34,-1.26625 -0.34,-2.02875 0,-0.58375 0.0487,-1.18375 0.13,-1.80125 0.0975,-0.61625 0.21,-1.21625 0.35625,-1.80125 l 3.9925,-18.59875 z m 12.07375,-14.50875 -15.4825,73.03125 14.705,-3.48875 5.0625,-23.77625 c 1.46125,0.925 2.95375,1.65625 4.4625,2.1575 1.52625,0.50375 3.08375,0.76375 4.69,0.76375 2.5,0.0163 4.86875,-0.47125 7.0925,-1.44375 2.24,-0.975 4.30125,-2.54875 6.1675,-4.74 1.86625,-2.17375 3.48875,-5.06375 4.8525,-8.665 1.37875,-3.60375 2.45,-8.01875 3.21375,-13.24375 0.19375,-1.26625 0.34,-2.46625 0.4375,-3.60375 0.0975,-1.135 0.14625,-2.20625 0.14625,-3.22875 0,-3.34375 -0.53625,-6.005 -1.6075,-8.0175 -1.0875,-2.0125 -2.72625,-3.45625 -4.93375,-4.34875 -2.19,-0.87625 -4.9825,-1.315 -8.3575,-1.29875 -1.21625,0 -2.40125,0.1625 -3.55375,0.47125 -1.1525,0.30875 -2.23875,0.74625 -3.2625,1.28125 l 0.39,-1.85 -14.0225,0 z m 11.88,41.48125 c -0.51875,0.0163 -1.13625,-0.0163 -1.8175,-0.065 -0.68125,-0.0487 -1.4125,-0.21125 -2.175,-0.455 -0.77875,-0.24125 -1.5575,-0.66375 -2.33625,-1.2325 l 7.01125,-32.79875 c 0.92375,-0.64875 1.85,-1.1525 2.77375,-1.50875 0.92625,-0.3575 1.85,-0.5525 2.77625,-0.5525 1.055,-0.0163 1.97875,0.14625 2.8075,0.52 0.81125,0.3725 1.46,1.055 1.93125,2.0775 0.47,1.02125 0.71375,2.49875 0.71375,4.43 0,1.16875 -0.0975,2.56375 -0.3075,4.20375 -0.195,1.6225 -0.52,3.52125 -0.95875,5.66375 -0.795,3.86125 -1.5575,7.075 -2.30375,9.62375 -0.73,2.56375 -1.49375,4.57625 -2.28875,6.0525 -0.77875,1.4775 -1.655,2.5325 -2.5975,3.15 -0.94,0.615 -2.01125,0.9075 -3.22875,0.89125 z"
         style="fill:#f8252a;stroke:none" />
      <path
         inkscape:connector-curvature="0"
         id="path3298"
         d="m 160.74604,818.89956 0.11375,0 3.74375,-19.155 5.83625,0 -6.59,28.2275 -5.25375,0 -5.2,-18.5925 -0.11375,0 -5.17375,18.5925 -5.25375,0 -6.59025,-28.2275 5.829,0 3.765,19.13625 0.1125,0 5.08125,-19.13625 4.57375,0 5.12,19.155 z m 66.39625,-2.21 0,11.2825 -5.6575,0 0,-28.2275 9.7675,0 c 3.215,0 5.73625,0.73375 7.54875,2.20375 1.82,1.46875 2.72625,3.5125 2.72625,6.13375 0,1.44875 -0.38375,2.7 -1.15125,3.75125 -0.77375,1.0525 -1.8925,1.90625 -3.3675,2.54875 1.6675,0.48875 2.865,1.31625 3.59875,2.46125 0.7275,1.15 1.0925,2.57375 1.0925,4.26625 l 0,2.0725 c 0,0.79375 0.105,1.61375 0.32375,2.47375 0.2125,0.86125 0.57625,1.49625 1.0925,1.90625 l 0,0.41 -5.83625,0 c -0.51625,-0.41625 -0.8475,-1.09875 -1,-2.0575 -0.145,-0.9525 -0.2175,-1.87875 -0.2175,-2.7725 l 0,-1.99125 c 0,-1.41 -0.38375,-2.50875 -1.15875,-3.28875 -0.7675,-0.78125 -1.8525,-1.1725 -3.26125,-1.1725 l -4.5,0 z m 0,-4.36 4.0175,0 c 1.5875,0 2.765,-0.3375 3.545,-1.01125 0.775,-0.66875 1.15875,-1.6675 1.15875,-2.985 0,-1.29 -0.39,-2.31625 -1.17125,-3.0825 -0.78,-0.76125 -1.92625,-1.13875 -3.44,-1.13875 l -4.11,0 0,8.2175 z m 90.515,4.07 c 0,3.47375 -1.0925,6.33875 -3.27625,8.595 -2.18375,2.25625 -5.02875,3.38875 -8.52875,3.38875 -3.49375,0 -6.31875,-1.1325 -8.49625,-3.39625 -2.17,-2.2625 -3.255,-5.1275 -3.255,-8.5875 l 0,-5.08125 c 0,-3.44875 1.085,-6.30625 3.24875,-8.57625 2.16375,-2.26875 4.9825,-3.40125 8.4625,-3.40125 3.5,0 6.3525,1.1325 8.55,3.40125 2.19625,2.27 3.295,5.1275 3.295,8.57625 l 0,5.08125 z m -5.645,-5.115 c 0,-2.20375 -0.54875,-4.0025 -1.6475,-5.4125 -1.0975,-1.41 -2.61375,-2.11 -4.5525,-2.11 -1.9125,0 -3.40125,0.7 -4.4725,2.11 -1.065,1.41 -1.595,3.20875 -1.595,5.4125 l 0,5.115 c 0,2.23625 0.53625,4.05625 1.60875,5.465 1.07125,1.41 2.57375,2.11125 4.49875,2.11125 1.93875,0 3.4475,-0.70125 4.5325,-2.11125 1.085,-1.40875 1.6275,-3.22875 1.6275,-5.465 l 0,-5.115 z m 79.3325,7.34375 0.04,0.11375 c 0.0463,3.01625 -0.8675,5.3725 -2.75375,7.07875 -1.89125,1.70875 -4.4925,2.5625 -7.81375,2.5625 -3.3875,0 -6.12,-1.0925 -8.19875,-3.27 -2.08375,-2.17625 -3.1225,-4.995 -3.1225,-8.4425 l 0,-5.60375 c 0,-3.435 1.0125,-6.25375 3.04375,-8.44375 2.03125,-2.19 4.69125,-3.2825 7.98625,-3.2825 3.44125,0 6.1275,0.84125 8.06625,2.52125 1.93875,1.68125 2.87875,4.04375 2.83125,7.0925 l -0.0387,0.12 -5.50625,0 c 0,-1.8125 -0.43625,-3.16375 -1.30875,-4.0425 -0.87375,-0.88625 -2.22375,-1.33125 -4.04375,-1.33125 -1.69375,0 -3.0175,0.6825 -3.96375,2.045 -0.9525,1.3625 -1.4225,3.12375 -1.4225,5.28125 l 0,5.64375 c 0,2.17 0.4975,3.94375 1.5025,5.31375 0.99875,1.36875 2.38875,2.05125 4.175,2.05125 1.69375,0 2.9575,-0.44375 3.79125,-1.32375 0.83375,-0.88625 1.25125,-2.25 1.25125,-4.08375 l 5.485,0 z m 57.65625,-7.79375 4.70375,-1.35625 0,3.77875 -4.70375,1.35625 0,9.01875 12.6375,0 0,4.34 -18.3025,0 0,-11.725 -2.23,0.635 0,-3.77875 2.23,-0.64125 0,-12.7175 5.665,0 0,11.09 z m 77.38625,11.05 -9.15125,0 -1.89875,6.0875 -5.90875,0 9.515,-28.2275 5.79625,0 9.48125,28.2275 -5.915,0 -1.91875,-6.0875 z m -7.755,-4.44 6.37875,0 -3.11625,-9.945 -0.12,0 -3.1425,9.945 z m 87.86125,1.455 0.1125,0 3.745,-19.155 5.83625,0 -6.59125,28.2275 -5.25375,0 -5.2,-18.5925 -0.1125,0 -5.175,18.5925 -5.25375,0 -6.59,-28.2275 5.82875,0 3.76625,19.13625 0.11125,0 5.0825,-19.13625 4.5725,0 5.12125,19.155 z"
         style="fill:#1b89d7;stroke:none" />
      <text
         xml:space="preserve"
         style="font-size:27.26623726px;font-style:normal;font-weight:normal;line-height:125%;letter-spacing:0px;word-spacing:0px;fill:#f8252a;fill-opacity:1;stroke:none;font-family:Sans"
         x="345.56396"
         y="874.63879"
         id="text3841"
         sodipodi:linespacing="125%"><tspan
           sodipodi:role="line"
           id="tspan3843"
           x="345.56396"
           y="874.63879"
           style="font-style:normal;font-variant:normal;font-weight:bold;font-stretch:normal;fill:#f8252a;fill-opacity:1;font-family:Ubuntu;-inkscape-font-specification:Ubuntu Bold">2015</tspan></text>
    </g>
  </g>
</svg>
