<?xml version="1.0" encoding="UTF-8" standalone="no"?>
<!-- Created with Inkscape (http://www.inkscape.org/) -->

<svg
   xmlns:dc="http://purl.org/dc/elements/1.1/"
   xmlns:cc="http://creativecommons.org/ns#"
   xmlns:rdf="http://www.w3.org/1999/02/22-rdf-syntax-ns#"
   xmlns:svg="http://www.w3.org/2000/svg"
   xmlns="http://www.w3.org/2000/svg"
   xmlns:sodipodi="http://sodipodi.sourceforge.net/DTD/sodipodi-0.dtd"
   xmlns:inkscape="http://www.inkscape.org/namespaces/inkscape"
   width="141.73228"
   height="14.173228"
   id="svg2"
   version="1.1"
   inkscape:version="0.48.4 r9939"
   sodipodi:docname="dlugopis_2015_v1.svg">
  <defs
     id="defs4" />
  <sodipodi:namedview
     id="base"
     pagecolor="#ffffff"
     bordercolor="#666666"
     borderopacity="1.0"
     inkscape:pageopacity="0.0"
     inkscape:pageshadow="2"
     inkscape:zoom="3.78"
     inkscape:cx="74.073103"
     inkscape:cy="2.0200699"
     inkscape:document-units="px"
     inkscape:current-layer="layer1"
     showgrid="false"
     units="mm"
     inkscape:window-width="1528"
     inkscape:window-height="732"
     inkscape:window-x="2156"
     inkscape:window-y="173"
     inkscape:window-maximized="0"
     showguides="true"
     inkscape:guide-bbox="true" />
  <metadata
     id="metadata7">
    <rdf:RDF>
      <cc:Work
         rdf:about="">
        <dc:format>image/svg+xml</dc:format>
        <dc:type
           rdf:resource="http://purl.org/dc/dcmitype/StillImage" />
        <dc:title></dc:title>
      </cc:Work>
    </rdf:RDF>
  </metadata>
  <g
     inkscape:label="Layer 1"
     inkscape:groupmode="layer"
     id="layer1"
     transform="translate(0,-1038.189)">
    <rect
       style="fill:#000000;fill-opacity:1;stroke:none"
       id="rect5163"
       width="141.73228"
       height="14.173228"
       x="0"
       y="1038.189" />
    <path
       inkscape:connector-curvature="0"
       style="fill:#ffffff;fill-opacity:1;stroke:none"
       d="m 58.887449,1040.7368 -1.686612,7.8874 1.785733,0 0.09928,-0.4962 c 0.266595,0.2275 0.527077,0.3949 0.779117,0.5002 0.254224,0.1055 0.498149,0.1591 0.733779,0.1572 0.308022,0 0.603528,-0.078 0.892866,-0.2315 0.287464,-0.1507 0.558189,-0.3658 0.814359,-0.6429 0.254169,-0.2769 0.487779,-0.6055 0.698828,-0.9838 0.210686,-0.3782 0.392625,-0.7936 0.547637,-1.2485 0.153011,-0.4546 0.270725,-0.9362 0.355509,-1.4427 0.0826,-0.5084 0.126084,-1.0292 0.126084,-1.5647 0.002,-0.3513 -0.03093,-0.6923 -0.09716,-1.0188 -0.06622,-0.3288 -0.177754,-0.6347 -0.334768,-0.9157 -0.157195,-0.2811 -0.372247,-0.5271 -0.644792,-0.7398 -0.272909,-0.2111 -0.614044,-0.3762 -1.023226,-0.4942 -0.40918,-0.1176 -0.901307,-0.1777 -1.471686,-0.1797 -0.41746,0 -0.833063,0.06 -1.248503,0.1778 -0.413401,0.1156 -0.806008,0.2768 -1.178146,0.4815 -0.371956,0.2067 -0.702649,0.4443 -0.99004,0.7172 -0.289246,0.2728 -0.516743,0.5642 -0.682017,0.8785 -0.165419,0.3141 -0.250166,0.6365 -0.254223,0.9693 0,0.2957 0.05158,0.5313 0.152902,0.7088 0.103359,0.1758 0.252204,0.304 0.450626,0.3805 0.196385,0.077 0.438091,0.1157 0.723463,0.1137 -0.0063,-0.033 -0.02283,-0.076 -0.04974,-0.1283 -0.02891,-0.051 -0.05564,-0.1303 -0.08254,-0.2396 -0.02486,-0.1097 -0.03924,-0.2687 -0.04143,-0.4754 0.0022,-0.4734 0.08271,-0.8952 0.239851,-1.267 0.159178,-0.3721 0.386511,-0.6863 0.67998,-0.9468 0.295523,-0.2602 0.649049,-0.4587 1.058212,-0.5951 0.409362,-0.1365 0.866065,-0.2046 1.370473,-0.2046 0.355382,0 0.644811,0.054 0.870161,0.1612 0.223239,0.1074 0.39881,0.2646 0.520709,0.4733 0.122081,0.2066 0.206683,0.4608 0.254351,0.7627 0.04549,0.2998 0.06804,0.6448 0.06605,1.0334 0,0.399 -0.02475,0.8082 -0.07441,1.2235 -0.04749,0.4177 -0.119716,0.8269 -0.21487,1.228 -0.09515,0.3987 -0.210867,0.775 -0.347139,1.1263 -0.138638,0.3513 -0.293469,0.6614 -0.471314,0.928 -0.175753,0.2688 -0.372138,0.4797 -0.584916,0.6327 -0.212978,0.1508 -0.44233,0.2292 -0.688276,0.2312 -0.117914,0 -0.235629,-0.018 -0.353544,-0.058 -0.117713,-0.042 -0.23561,-0.1036 -0.353342,-0.1903 l 1.488024,-6.9572 -1.835292,0.248 z m 6.287524,1.6865 -1.31451,6.2009 1.785732,0 1.029412,-4.8614 c 0.09297,-0.087 0.181939,-0.1592 0.266722,-0.2191 0.0826,-0.058 0.171387,-0.1033 0.26454,-0.1323 0.09497,-0.031 0.202498,-0.046 0.324397,-0.046 0.07241,0 0.121899,0.031 0.150827,0.085 0.02911,0.054 0.04985,0.1219 0.06204,0.2025 0.01455,0.081 0.0353,0.1612 0.06004,0.2418 0.02674,0.083 0.07441,0.1488 0.140457,0.2047 0.06841,0.054 0.169567,0.083 0.306021,0.085 0.152829,0 0.285099,-0.031 0.400812,-0.091 0.115895,-0.058 0.213051,-0.1344 0.291467,-0.2294 0.07878,-0.097 0.138637,-0.2005 0.177754,-0.3121 0.0393,-0.1137 0.06004,-0.2254 0.06004,-0.3349 0,-0.1592 -0.03712,-0.2977 -0.107525,-0.4155 -0.07023,-0.1178 -0.17357,-0.2107 -0.30584,-0.2769 -0.13227,-0.066 -0.29365,-0.1014 -0.479409,-0.1014 -0.173752,0 -0.345321,0.029 -0.512705,0.083 -0.167384,0.056 -0.328764,0.128 -0.487779,0.2211 -0.159196,0.095 -0.314209,0.1984 -0.463035,0.3164 l 0.136455,-0.6203 -1.785914,0 z m 8.060994,0 -0.892776,4.2165 c -0.0373,0.149 -0.06223,0.2854 -0.07459,0.4094 -0.157014,0.128 -0.310025,0.2335 -0.458851,0.3162 -0.150828,0.085 -0.291466,0.1282 -0.421553,0.1302 -0.163381,0 -0.291466,-0.02 -0.380435,-0.062 -0.09079,-0.04 -0.15483,-0.095 -0.190126,-0.1655 -0.03512,-0.07 -0.05167,-0.1529 -0.04949,-0.2439 0,-0.056 0.006,-0.1176 0.01438,-0.1819 0.01037,-0.066 0.02274,-0.1343 0.03512,-0.2027 l 0.892957,-4.2164 -1.785914,0 -0.892957,4.2164 c -0.04949,0.2358 -0.07423,0.4467 -0.07423,0.6328 0.002,0.3098 0.06404,0.564 0.190126,0.7647 0.124082,0.1983 0.301837,0.3473 0.533264,0.4423 0.231608,0.097 0.506336,0.1446 0.826731,0.1446 0.179755,0 0.369882,-0.052 0.570561,-0.1488 0.200497,-0.097 0.405178,-0.223 0.611861,-0.3802 0.206501,-0.1573 0.40718,-0.3288 0.603492,-0.5128 0.0393,0.2399 0.124083,0.4363 0.258354,0.5892 0.132269,0.155 0.305839,0.2685 0.520709,0.3431 0.215052,0.072 0.463035,0.1095 0.746132,0.1095 0.16138,0 0.332949,-0.044 0.514706,-0.124 0.179937,-0.083 0.363878,-0.1902 0.54982,-0.3246 0.188125,-0.1343 0.372065,-0.2851 0.554004,-0.4483 0.181757,-0.1634 0.35551,-0.3268 0.52071,-0.4942 0.163563,-0.1651 0.314391,-0.3224 0.450663,-0.467 0.136455,-0.1426 0.252168,-0.2645 0.349323,-0.3619 l -0.421553,0 c -0.124082,0.1014 -0.256351,0.215 -0.394807,0.3392 -0.138456,0.1219 -0.281096,0.2418 -0.423737,0.3555 -0.142457,0.1137 -0.28528,0.2087 -0.423735,0.2831 -0.138456,0.072 -0.270726,0.1116 -0.394809,0.1137 -0.163199,0 -0.291284,-0.02 -0.380252,-0.062 -0.09097,-0.04 -0.155013,-0.095 -0.190127,-0.1656 -0.03512,-0.07 -0.05167,-0.1528 -0.04967,-0.2438 0,-0.056 0.0063,-0.1177 0.01455,-0.1819 0.01037,-0.066 0.02274,-0.1343 0.03512,-0.2027 l 0.892776,-4.2165 -1.785732,0 z m 3.125167,0 -1.971855,9.3013 1.872517,-0.4445 0.644974,-3.0278 c 0.186123,0.1177 0.37625,0.2107 0.568377,0.2747 0.194312,0.064 0.392807,0.097 0.597489,0.097 0.318211,0 0.619866,-0.06 0.903145,-0.1841 0.285281,-0.124 0.547637,-0.3245 0.785431,-0.6035 0.237612,-0.2769 0.444478,-0.6448 0.617866,-1.1037 0.175753,-0.4588 0.312207,-1.021 0.409362,-1.6866 0.02475,-0.1612 0.04331,-0.3142 0.05586,-0.4588 0.01237,-0.1448 0.01856,-0.2811 0.01856,-0.4113 0,-0.4258 -0.06823,-0.7648 -0.204681,-1.0211 -0.138456,-0.2564 -0.34714,-0.4403 -0.628236,-0.5538 -0.279094,-0.1118 -0.634604,-0.1676 -1.064525,-0.1656 -0.155013,0 -0.30584,0.021 -0.452665,0.06 -0.146643,0.04 -0.285281,0.095 -0.415367,0.1634 l 0.04948,-0.2359 -1.785733,0 z m 1.512824,5.2832 c -0.06605,0 -0.144642,0 -0.231427,-0.01 -0.0866,-0.01 -0.179755,-0.027 -0.276729,-0.058 -0.09934,-0.031 -0.198677,-0.085 -0.297834,-0.1572 l 0.892957,-4.1771 c 0.117714,-0.083 0.235611,-0.1468 0.353326,-0.1923 0.117896,-0.046 0.235611,-0.07 0.353507,-0.07 0.134453,0 0.252168,0.018 0.357693,0.066 0.103341,0.048 0.185941,0.1344 0.245982,0.2645 0.05985,0.1303 0.09079,0.3184 0.09079,0.5644 0,0.1488 -0.01237,0.3264 -0.0393,0.5352 -0.02456,0.2069 -0.06605,0.4485 -0.121899,0.7214 -0.101158,0.4918 -0.198496,0.9012 -0.293468,1.2256 -0.09297,0.3267 -0.190126,0.5829 -0.291466,0.771 -0.09916,0.1881 -0.210686,0.3224 -0.330766,0.4011 -0.119898,0.078 -0.25617,0.1156 -0.411364,0.1137 z m 7.317044,-5.2832 -0.0744,0.3226 c -0.113711,-0.095 -0.243979,-0.1696 -0.388622,-0.2254 -0.144641,-0.056 -0.291465,-0.083 -0.442293,-0.085 -0.413366,0 -0.779245,0.068 -1.101641,0.1985 -0.322396,0.1303 -0.603492,0.312 -0.843288,0.5436 -0.239796,0.2295 -0.442294,0.4982 -0.609678,0.802 -0.167566,0.3039 -0.301837,0.6304 -0.403177,0.9797 -0.10134,0.3494 -0.175572,0.7089 -0.223057,1.0768 -0.04548,0.3659 -0.06841,0.7297 -0.06841,1.0873 -0.002,0.1861 0.02293,0.37 0.07241,0.5539 0.04967,0.186 0.134271,0.3534 0.250167,0.5086 0.115713,0.1528 0.274909,0.2769 0.473405,0.3699 0.198314,0.093 0.446297,0.1406 0.741766,0.1426 0.252349,-0.01 0.481774,-0.054 0.690459,-0.1508 0.208865,-0.097 0.396991,-0.2235 0.562191,-0.3763 0.165383,-0.155 0.310025,-0.3164 0.433925,-0.4897 0.08278,0.3223 0.254351,0.5599 0.514888,0.713 0.260355,0.155 0.593125,0.2313 0.998295,0.2294 0.1612,0 0.33277,-0.044 0.51471,-0.1241 0.17976,-0.083 0.3637,-0.1902 0.54982,-0.3246 0.18794,-0.1343 0.37188,-0.2831 0.55382,-0.4463 0.18194,-0.1632 0.35551,-0.3288 0.52089,-0.4962 0.1632,-0.1651 0.31403,-0.3224 0.45067,-0.467 0.13627,-0.1448 0.25217,-0.2645 0.34932,-0.3619 l -0.42173,0 c -0.12409,0.1014 -0.25636,0.2151 -0.39481,0.3392 -0.13846,0.1219 -0.2811,0.2418 -0.42374,0.3555 -0.14264,0.1137 -0.28528,0.2087 -0.42373,0.2831 -0.13846,0.072 -0.27073,0.1117 -0.39481,0.1137 -0.1632,0 -0.29129,-0.02 -0.38026,-0.062 -0.091,-0.04 -0.15501,-0.095 -0.19012,-0.1655 -0.0351,-0.07 -0.0519,-0.1529 -0.0495,-0.2439 0,-0.056 0.006,-0.1176 0.0144,-0.1819 0.0102,-0.066 0.0227,-0.1343 0.0351,-0.2027 l 0.89296,-4.2164 -1.78592,0 z m -0.805989,0.707 c 0.08879,0 0.185942,0.014 0.293467,0.046 0.107345,0.033 0.212869,0.093 0.314027,0.1777 l -0.694461,3.2862 c -0.0373,0.149 -0.06186,0.2855 -0.07423,0.4094 -0.0786,0.1177 -0.16138,0.221 -0.248165,0.3142 -0.08478,0.095 -0.173569,0.1674 -0.264539,0.2232 -0.09297,0.054 -0.186124,0.081 -0.281096,0.083 -0.107526,0 -0.215052,-0.018 -0.324397,-0.062 -0.109709,-0.046 -0.20268,-0.1323 -0.277093,-0.2604 -0.0766,-0.126 -0.115714,-0.3122 -0.117715,-0.558 0,-0.3411 0.02893,-0.6821 0.0846,-1.0274 0.05586,-0.3449 0.134453,-0.6757 0.235611,-0.9899 0.103523,-0.3121 0.223421,-0.5933 0.361695,-0.8391 0.140639,-0.246 0.293468,-0.4405 0.461034,-0.583 0.167384,-0.1426 0.345138,-0.217 0.531262,-0.219 z m 4.489349,-2.9392 -1.37655,6.4487 c -0.0497,0.2358 -0.0746,0.4466 -0.0746,0.6328 0.002,0.3098 0.0642,0.564 0.18612,0.7646 0.12408,0.1983 0.29984,0.3474 0.52908,0.4423 0.22942,0.097 0.50233,0.1447 0.82255,0.1447 0.16138,0 0.33294,-0.044 0.51488,-0.1241 0.17976,-0.083 0.3637,-0.1902 0.54964,-0.3246 0.18813,-0.1343 0.37225,-0.2851 0.55401,-0.4483 0.18175,-0.1634 0.3555,-0.3268 0.52089,-0.4942 0.16338,-0.1651 0.31421,-0.3224 0.45048,-0.467 0.13663,-0.1426 0.25235,-0.2645 0.34932,-0.3619 l -0.42173,0 c -0.1239,0.1014 -0.25617,0.2151 -0.39463,0.3392 -0.13846,0.1219 -0.28109,0.2418 -0.42374,0.3555 -0.14264,0.1137 -0.28528,0.2087 -0.42355,0.2831 -0.13864,0.072 -0.27091,0.1117 -0.39481,0.1137 -0.15919,0 -0.28546,-0.02 -0.37625,-0.058 -0.091,-0.039 -0.15301,-0.093 -0.19012,-0.1612 -0.0373,-0.068 -0.0559,-0.1489 -0.0539,-0.2398 0,-0.048 0.006,-0.1034 0.0166,-0.1654 0.0124,-0.062 0.0269,-0.1405 0.0455,-0.2316 l 1.42622,-6.6966 -1.83541,0.2479 z m 8.37083,6.2007 c -0.15483,0.2647 -0.3535,0.4859 -0.59312,0.6615 -0.23979,0.1758 -0.50652,0.308 -0.80199,0.3968 -0.29546,0.089 -0.60349,0.1323 -0.92388,0.1323 -0.33277,0 -0.6055,-0.043 -0.82055,-0.1343 -0.21505,-0.089 -0.38043,-0.2274 -0.50015,-0.4155 -0.12008,-0.1882 -0.20268,-0.4277 -0.24816,-0.7212 -0.0475,-0.2937 -0.0702,-0.643 -0.0682,-1.0482 0,-0.3719 0.0269,-0.7583 0.0808,-1.1635 0.0515,-0.4052 0.1279,-0.8061 0.22924,-1.2072 0.10134,-0.3989 0.22542,-0.7792 0.37006,-1.1367 0.14683,-0.3577 0.31203,-0.6737 0.49815,-0.9508 0.18594,-0.279 0.39063,-0.496 0.61168,-0.6552 0.22342,-0.1591 0.46104,-0.2418 0.7152,-0.2438 0.1965,0 0.35351,0.039 0.46923,0.1094 0.11571,0.07 0.20049,0.1552 0.25635,0.2563 0.0559,0.1012 0.091,0.1985 0.10734,0.2936 0.0166,0.095 0.0249,0.1675 0.0229,0.2211 0,0.079 -0.0145,0.1714 -0.0415,0.2771 -0.0267,0.1054 -0.0662,0.2107 -0.11571,0.3141 -0.0475,0.1053 -0.10535,0.1962 -0.17157,0.2728 -0.066,0.078 -0.13846,0.1281 -0.21705,0.1529 0.0786,0.089 0.16119,0.1572 0.24398,0.2047 0.0828,0.048 0.1652,0.078 0.24398,0.095 0.0784,0.016 0.15283,0.023 0.21905,0.023 0.21069,0 0.37807,-0.051 0.50634,-0.1508 0.12808,-0.097 0.21905,-0.2314 0.27691,-0.403 0.0579,-0.1694 0.0868,-0.3659 0.0848,-0.5872 -0.002,-0.2994 -0.0599,-0.5559 -0.17575,-0.7666 -0.11372,-0.2131 -0.27073,-0.3845 -0.47123,-0.5147 -0.19849,-0.1323 -0.42774,-0.2294 -0.68609,-0.2893 -0.25853,-0.062 -0.53344,-0.091 -0.82473,-0.091 -0.54782,0.01 -1.0336,0.093 -1.45515,0.2728 -0.42173,0.1777 -0.78543,0.4237 -1.09563,0.7379 -0.30785,0.312 -0.5662,0.6739 -0.77507,1.0811 -0.21068,0.4092 -0.37806,0.8453 -0.50215,1.3083 -0.12608,0.465 -0.21505,0.9342 -0.27072,1.4137 -0.0559,0.4796 -0.0828,0.9446 -0.0806,1.3993 0.002,0.5065 0.0559,0.9424 0.1612,1.3043 0.10534,0.3637 0.24798,0.6655 0.42992,0.9073 0.18194,0.2396 0.39062,0.4299 0.62205,0.5706 0.23361,0.1384 0.47759,0.2376 0.73376,0.2954 0.25853,0.058 0.5147,0.087 0.76905,0.085 0.23562,0 0.4836,-0.016 0.74614,-0.054 0.26235,-0.037 0.52489,-0.1014 0.78943,-0.1922 0.26672,-0.093 0.52089,-0.2212 0.76687,-0.3864 0.24398,-0.1654 0.46722,-0.3742 0.66754,-0.6284 0.2025,-0.2542 0.37006,-0.56 0.50233,-0.9219 l -0.28528,-0.1241 z m 3.894048,-3.9685 -0.0744,0.3226 c -0.11372,-0.095 -0.2438,-0.1696 -0.38844,-0.2254 -0.14465,-0.056 -0.29147,-0.083 -0.44248,-0.085 -0.413368,0 -0.779248,0.068 -1.101638,0.1985 -0.3224,0.1303 -0.60349,0.312 -0.84311,0.5436 -0.23998,0.2295 -0.44247,0.4982 -0.60986,0.802 -0.16756,0.3039 -0.30183,0.6304 -0.40317,0.9797 -0.10116,0.3494 -0.17558,0.7089 -0.22306,1.0768 -0.0455,0.3659 -0.0682,0.7297 -0.0682,1.0873 -0.002,0.1861 0.0227,0.37 0.0722,0.5539 0.0497,0.186 0.13445,0.3534 0.25016,0.5086 0.11572,0.1528 0.27491,0.2769 0.47341,0.3699 0.19831,0.093 0.4463,0.1406 0.74195,0.1426 0.25217,-0.01 0.48159,-0.054 0.69046,-0.1508 0.20868,-0.097 0.39681,-0.2235 0.56201,-0.3763 0.16538,-0.155 0.310018,-0.3164 0.434098,-0.4897 0.0826,0.3223 0.25417,0.5599 0.51471,0.713 0.26054,0.155 0.59312,0.2313 0.9983,0.2294 0.1612,0 0.33277,-0.044 0.5147,-0.1241 0.17976,-0.083 0.3637,-0.1902 0.54982,-0.3246 0.18813,-0.1343 0.37189,-0.2831 0.55401,-0.4463 0.18176,-0.1632 0.35533,-0.3288 0.52071,-0.4962 0.1632,-0.1651 0.31421,-0.3224 0.45066,-0.467 0.13627,-0.1448 0.25217,-0.2645 0.34932,-0.3619 l -0.42173,0 c -0.12408,0.1014 -0.25635,0.2151 -0.39481,0.3392 -0.13827,0.1219 -0.28109,0.2418 -0.42373,0.3555 -0.14264,0.1137 -0.2851,0.2087 -0.42374,0.2831 -0.13827,0.072 -0.27054,0.1117 -0.39481,0.1137 -0.1632,0 -0.29128,-0.02 -0.38025,-0.062 -0.091,-0.04 -0.15483,-0.095 -0.19013,-0.1655 -0.0351,-0.07 -0.0517,-0.1529 -0.0495,-0.2439 0,-0.056 0.006,-0.1176 0.0144,-0.1819 0.0104,-0.066 0.0227,-0.1343 0.0351,-0.2027 l 0.89296,-4.2164 -1.78591,0 z m -0.80599,0.707 c 0.0888,0 0.18594,0.014 0.29346,0.046 0.10753,0.033 0.21287,0.093 0.31421,0.1777 l -0.69464,3.2862 c -0.0371,0.149 -0.0619,0.2855 -0.0742,0.4094 -0.0786,0.1177 -0.16138,0.221 -0.248168,0.3142 -0.0848,0.095 -0.17357,0.1674 -0.26454,0.2232 -0.093,0.054 -0.18612,0.081 -0.28109,0.083 -0.10735,0 -0.21505,-0.018 -0.3244,-0.062 -0.10971,-0.046 -0.20268,-0.1323 -0.27709,-0.2604 -0.0764,-0.126 -0.11572,-0.3122 -0.11772,-0.558 0,-0.3411 0.0289,-0.6821 0.0848,-1.0274 0.0557,-0.3449 0.13427,-0.6757 0.23561,-0.9899 0.10335,-0.3121 0.22324,-0.5933 0.36152,-0.8391 0.14064,-0.246 0.29347,-0.4405 0.46103,-0.583 0.16739,-0.1426 0.345138,-0.217 0.531258,-0.219 z m 11.58297,1.141 c 0.006,-0.05 0.0124,-0.097 0.0166,-0.1426 0.006,-0.046 0.008,-0.093 0.008,-0.1427 -0.002,-0.2128 -0.0433,-0.4134 -0.12609,-0.5995 -0.0826,-0.1881 -0.19431,-0.3533 -0.33058,-0.4981 -0.13864,-0.1447 -0.29147,-0.2582 -0.45903,-0.339 -0.16721,-0.083 -0.33677,-0.1239 -0.51034,-0.1261 -0.2025,0 -0.40918,0.042 -0.61805,0.1158 -0.20887,0.074 -0.41337,0.1737 -0.61605,0.2978 -0.20031,0.1238 -0.39262,0.2581 -0.57656,0.405 -0.093,-0.1632 -0.20468,-0.306 -0.33695,-0.428 -0.13227,-0.1217 -0.27491,-0.217 -0.42992,-0.285 -0.15301,-0.07 -0.30584,-0.1034 -0.46086,-0.1056 -0.17775,0 -0.35969,0.031 -0.54163,0.091 -0.18176,0.058 -0.36369,0.1362 -0.54145,0.2356 -0.17775,0.099 -0.35151,0.2087 -0.51671,0.3306 l 0.13628,-0.6574 -1.78574,0 -1.31469,6.2009 1.78592,0 1.06652,-5.0103 c 0.1219,-0.087 0.24198,-0.153 0.3597,-0.1963 0.11789,-0.044 0.25016,-0.064 0.39681,-0.064 0.17175,0 0.30802,0.068 0.41136,0.1985 0.10334,0.1301 0.1572,0.3079 0.1592,0.533 0,0.05 -0.002,0.1014 -0.008,0.1573 -0.006,0.054 -0.0166,0.1095 -0.0289,0.1653 l -0.89296,4.2165 1.79829,0 0.9177,-4.3529 c 0.006,-0.044 0.0126,-0.087 0.0166,-0.1303 0.006,-0.043 0.008,-0.087 0.008,-0.1303 0,-0.074 -0.006,-0.1466 -0.0166,-0.217 -0.0102,-0.07 -0.0269,-0.1426 -0.0455,-0.217 0.11589,-0.074 0.23161,-0.1302 0.34532,-0.1672 0.11571,-0.037 0.23979,-0.056 0.37406,-0.056 0.17157,0 0.30785,0.068 0.41119,0.1985 0.10334,0.1301 0.15719,0.3079 0.15919,0.533 0,0.05 -0.002,0.1014 -0.008,0.1573 -0.006,0.054 -0.0164,0.1095 -0.0289,0.1653 l -0.47122,2.2321 c -0.0247,0.1179 -0.0433,0.2276 -0.0559,0.3309 -0.0124,0.1033 -0.0186,0.2025 -0.0186,0.3019 0.002,0.3098 0.062,0.564 0.18394,0.7646 0.1219,0.1983 0.29547,0.3474 0.52508,0.4423 0.22942,0.097 0.50633,0.1447 0.82873,0.1447 0.19431,-0.01 0.39262,-0.062 0.5933,-0.1736 0.2005,-0.1117 0.39881,-0.2563 0.59531,-0.4363 0.19631,-0.1797 0.38444,-0.3739 0.56419,-0.5786 0.17976,-0.2066 0.34514,-0.4071 0.49815,-0.5995 0.15501,-0.1921 0.28728,-0.3576 0.403,-0.4939 l -0.58294,0 c -0.0722,0.1363 -0.15701,0.2769 -0.25417,0.4217 -0.0972,0.1466 -0.20249,0.2831 -0.31821,0.4112 -0.11371,0.1263 -0.23361,0.2296 -0.35769,0.31 -0.1239,0.079 -0.24817,0.1199 -0.37207,0.122 -0.13026,0 -0.23361,-0.023 -0.30784,-0.068 -0.0744,-0.046 -0.12626,-0.1053 -0.15719,-0.1819 -0.0289,-0.077 -0.0435,-0.1614 -0.0435,-0.2583 0,-0.074 0.006,-0.1511 0.0166,-0.2295 0.0124,-0.079 0.0269,-0.155 0.0457,-0.2296 l 0.50834,-2.3685 z m 1.53775,-1.848 -1.97168,9.3013 1.87252,-0.4445 0.64497,-3.0278 c 0.18594,0.1177 0.37607,0.2107 0.5682,0.2747 0.19449,0.064 0.39281,0.097 0.59748,0.097 0.31822,0 0.62006,-0.06 0.90315,-0.1841 0.28529,-0.124 0.54764,-0.3245 0.78543,-0.6035 0.2378,-0.2769 0.44448,-0.6448 0.61805,-1.1037 0.17576,-0.4588 0.31203,-1.021 0.40937,-1.6866 0.0246,-0.1612 0.0433,-0.3142 0.0557,-0.4588 0.0124,-0.1448 0.0187,-0.2811 0.0187,-0.4113 0,-0.4258 -0.0684,-0.7648 -0.20469,-1.0211 -0.13863,-0.2564 -0.34732,-0.4403 -0.62841,-0.5538 -0.27892,-0.1118 -0.63461,-0.1676 -1.06453,-0.1656 -0.15483,0 -0.30584,0.021 -0.45267,0.06 -0.14664,0.04 -0.2851,0.095 -0.41536,0.1634 l 0.0495,-0.2359 -1.78574,0 z m 1.513,5.2832 c -0.0662,0 -0.14464,0 -0.23143,-0.01 -0.0868,-0.01 -0.17975,-0.027 -0.27691,-0.058 -0.0993,-0.031 -0.19867,-0.085 -0.29765,-0.1572 l 0.89296,-4.1771 c 0.11771,-0.083 0.23561,-0.1468 0.35333,-0.1923 0.11789,-0.046 0.2356,-0.07 0.3535,-0.07 0.13427,0 0.25199,0.018 0.35751,0.066 0.10334,0.048 0.18595,0.1344 0.24598,0.2645 0.0599,0.1303 0.0908,0.3184 0.0908,0.5644 0,0.1488 -0.0124,0.3264 -0.0391,0.5352 -0.0247,0.2069 -0.0662,0.4485 -0.12208,0.7214 -0.10116,0.4918 -0.19831,0.9012 -0.29347,1.2256 -0.093,0.3267 -0.19012,0.5829 -0.29146,0.771 -0.0992,0.1881 -0.21069,0.3224 -0.33059,0.4011 -0.1199,0.078 -0.25635,0.1156 -0.41136,0.1137 z"
       id="path3261" />
    <g
       id="g3042" />
    <g
       id="g5204"
       transform="matrix(0,-1.3162351,1.3162351,0,-1347.6596,1400.5804)">
      <path
         id="path3265"
         d="m 267.90149,1049.95 0.59417,0 0,-2.8581 -0.59417,0 0,2.8581 z"
         style="fill:#ffffff;fill-opacity:1;stroke:none"
         inkscape:connector-curvature="0" />
      <path
         id="path3267"
         d="m 271.30933,1049.95 0.59405,0 0,-2.7464 -0.59405,0 0,2.7464 z"
         style="fill:#ffffff;fill-opacity:1;stroke:none"
         inkscape:connector-curvature="0" />
      <path
         id="path3269"
         d="m 267.9016,1049.2345 4.00189,0 0,1.6746 c -0.56967,-0.2814 -1.22392,-0.442 -1.91974,-0.442 -0.73066,0 -1.41517,0.1771 -2.00444,0.4852 l -0.0777,0 0,-1.7178 z"
         style="fill:#ffffff;fill-opacity:1;stroke:none"
         inkscape:connector-curvature="0" />
      <path
         id="path3271"
         d="m 269.92921,1046.8536 c 0.30106,0 0.54498,0.2195 0.54498,0.4905 0,0.2709 -0.24392,0.4905 -0.54498,0.4905 -0.30094,0 -0.54497,-0.2196 -0.54497,-0.4905 0,-0.271 0.24403,-0.4905 0.54497,-0.4905 z"
         style="fill:#ffffff;fill-opacity:1;stroke:none"
         inkscape:connector-curvature="0" />
      <path
         id="path3273"
         d="m 269.92921,1048.0464 c 0.30106,0 0.54498,0.2194 0.54498,0.4903 0,0.2711 -0.24392,0.4905 -0.54498,0.4905 -0.30094,0 -0.54497,-0.2194 -0.54497,-0.4905 0,-0.2709 0.24403,-0.4903 0.54497,-0.4903 z"
         style="fill:#ffffff;fill-opacity:1;stroke:none"
         inkscape:connector-curvature="0" />
      <path
         id="path3275"
         d="m 265.78648,1052.224 c 0.40075,-0.6453 1.16722,-1.0823 2.04721,-1.0823 0.87987,0 1.64644,0.437 2.04709,1.0823 -0.55771,-0.1869 -1.2704,-0.2997 -2.04709,-0.2997 -0.77681,0 -1.48951,0.1128 -2.04721,0.2997 z"
         style="fill:#ffffff;fill-opacity:1;stroke:none"
         inkscape:connector-curvature="0" />
      <path
         id="path3277"
         d="m 269.95708,1052.224 c 0.40065,-0.6453 1.16711,-1.0823 2.04709,-1.0823 0.87988,0 1.64645,0.437 2.04699,1.0823 -0.55749,-0.1869 -1.27029,-0.2997 -2.04699,-0.2997 -0.7768,0 -1.48949,0.1128 -2.04709,0.2997 z"
         style="fill:#ffffff;fill-opacity:1;stroke:none"
         inkscape:connector-curvature="0" />
      <path
         id="path3279"
         d="m 271.89849,1049.9957 c 0.49469,-0.2487 0.82915,-0.7246 0.82915,-1.2709 0,-0.5462 -0.33446,-1.022 -0.82915,-1.2707 0.14334,0.3461 0.22943,0.7885 0.22943,1.2707 0,0.4824 -0.0861,0.9247 -0.22943,1.2709 z"
         style="fill:#ffffff;fill-opacity:1;stroke:none"
         inkscape:connector-curvature="0" />
      <path
         id="path3281"
         d="m 267.90149,1049.9957 c -0.49468,-0.2487 -0.82926,-0.7246 -0.82926,-1.2709 0,-0.5462 0.33458,-1.022 0.82926,-1.2707 -0.14334,0.3461 -0.22954,0.7885 -0.22954,1.2707 0,0.4824 0.0862,0.9247 0.22954,1.2709 z"
         style="fill:#ffffff;fill-opacity:1;stroke:none"
         inkscape:connector-curvature="0" />
      <path
         id="path3283"
         d="m 267.39037,1046.1863 -0.34133,0.3254 1.35171,1.3815 0.90023,-0.8876 c -0.71346,-0.1345 -1.36477,-0.4206 -1.91061,-0.8193 z"
         style="fill:#ffffff;fill-opacity:1;stroke:none"
         inkscape:connector-curvature="0" />
      <path
         id="path3285"
         d="m 272.48504,1046.1863 0.34133,0.3254 -1.35171,1.3815 -0.90023,-0.8876 c 0.71345,-0.1345 1.36488,-0.4206 1.91061,-0.8193 z"
         style="fill:#ffffff;fill-opacity:1;stroke:none"
         inkscape:connector-curvature="0" />
      <path
         id="path3287"
         d="m 269.92889,1034.5978 c 0.62518,1.777 3.45115,5.8156 3.88434,7.3786 l -4.1e-4,-3e-4 c 0.10928,0.3294 0.16806,0.6782 0.16806,1.0396 0,2.0053 -1.80601,3.6308 -4.034,3.6308 -2.22811,0 -4.03422,-1.6255 -4.03422,-3.6308 0,-0.7318 0.24097,-1.4133 0.65489,-1.9834 0.88326,-1.3176 2.82586,-4.9131 3.36137,-6.4345 z"
         style="fill:#ffffff;fill-opacity:1;stroke:none"
         inkscape:connector-curvature="0" />
      <path
         id="path3289"
         d="m 265.93635,1043.415 c -0.44004,-0.048 -0.75296,-0.409 -0.69909,-0.805 0.054,-0.3957 0.45453,-0.6776 0.89446,-0.629 l -0.054,0.3964 c -0.19679,-0.024 -0.37594,0.1041 -0.39999,0.2812 -0.0242,0.1773 0.11581,0.3385 0.31259,0.3603 l -0.054,0.3961 z"
         style="fill:#ffffff;fill-opacity:1;stroke:none"
         inkscape:connector-curvature="0" />
      <path
         id="path3291"
         d="m 273.9482,1043.415 c 0.43994,-0.048 0.75296,-0.409 0.69898,-0.805 -0.0539,-0.3957 -0.45442,-0.6776 -0.89436,-0.629 l 0.054,0.3964 c 0.19679,-0.024 0.37583,0.1041 0.39999,0.2812 0.0242,0.1773 -0.11591,0.3385 -0.31259,0.3603 l 0.054,0.3961 z"
         style="fill:#ffffff;fill-opacity:1;stroke:none"
         inkscape:connector-curvature="0" />
      <path
         id="path3293"
         d="m 270.78939,1043.2983 c -0.005,-0.3988 -0.3681,-0.7188 -0.81131,-0.7146 -0.4432,0 -0.79868,0.3315 -0.79389,0.7302 l 0.44364,0 c -0.002,-0.1784 0.15684,-0.3247 0.35504,-0.3264 0.19831,0 0.36081,0.141 0.36288,0.3194 l 0.44364,0 z"
         style="fill:#000000;fill-opacity:1;stroke:none"
         inkscape:connector-curvature="0" />
      <path
         id="path3295"
         d="m 269.17973,1042.4565 c 0.51504,-0.3312 0.98284,-0.3569 1.56569,0.01 0.2954,0.1846 0.52473,0.3712 0.91993,0.3712 0.56903,0 1.0304,-0.4154 1.0304,-0.9275 0,-0.512 -0.64249,-0.9273 -1.0304,-0.9273 -0.34786,0 -0.50851,0.095 -0.78279,0.2387 -0.69996,0.3661 -1.1189,0.4008 -1.78305,0.024 -0.28549,-0.1618 -0.49447,-0.2631 -0.85473,-0.2631 -0.38802,0 -1.03052,0.4153 -1.03052,0.9274 0,0.5121 0.46149,0.9274 1.03052,0.9274 0.40097,0 0.63814,-0.1873 0.93495,-0.378 z"
         style="fill:#000000;fill-opacity:1;stroke:none"
         inkscape:connector-curvature="0" />
      <path
         id="path3297"
         d="m 272.56612,1043.9874 c 0.2978,-0.035 0.59918,-0.2091 0.90393,-0.5185 -0.17197,0.9126 -0.67362,1.5328 -1.76574,1.5197 -0.52929,-0.01 -1.20128,-0.2492 -1.53542,-0.6327 -0.2658,-0.3051 -0.34514,-0.8164 0.0528,-1.0465 0.16043,-0.092 0.44745,-0.082 0.70584,-0.027 0.28974,0.061 0.49316,0.1535 0.68255,0.3215 0.2795,0.2478 0.51612,0.4394 0.95606,0.3843 z"
         style="fill:#000000;fill-opacity:1;stroke:none"
         inkscape:connector-curvature="0" />
      <path
         id="path3299"
         d="m 267.3107,1043.9874 c -0.2979,-0.035 -0.59918,-0.2091 -0.90393,-0.5185 0.17197,0.9126 0.67362,1.5328 1.76574,1.5197 0.5293,-0.01 1.20128,-0.2492 1.53532,-0.6327 0.2659,-0.3051 0.34525,-0.8164 -0.0527,-1.0465 -0.16054,-0.092 -0.44756,-0.082 -0.70584,-0.027 -0.28963,0.061 -0.49327,0.1535 -0.68254,0.3215 -0.27962,0.2478 -0.51613,0.4394 -0.95607,0.3843 z"
         style="fill:#000000;fill-opacity:1;stroke:none"
         inkscape:connector-curvature="0" />
      <path
         id="path3301"
         d="m 269.73276,1045.3264 c -0.44179,-0.01 -0.79564,-0.3321 -0.79085,-0.73 l 0.44364,0 c -0.002,0.1758 0.15271,0.3205 0.34721,0.3262 l 0,0.3994 z"
         style="fill:#000000;fill-opacity:1;stroke:none"
         inkscape:connector-curvature="0" />
      <path
         id="path3303"
         d="m 270.15832,1045.3264 c 0.44179,-0.01 0.79564,-0.3321 0.79085,-0.73 l -0.44364,0 c 0.002,0.1758 -0.1527,0.3205 -0.34721,0.3262 l 0,0.3994 z"
         style="fill:#000000;fill-opacity:1;stroke:none"
         inkscape:connector-curvature="0" />
      <path
         id="path3305"
         d="m 269.73276,1044.9269 0.44559,0 0,0.3989 -0.44559,0 0,-0.3989 z"
         style="fill:#0a0a0a;fill-opacity:1;stroke:none"
         inkscape:connector-curvature="0" />
      <path
         id="path3307"
         d="m 266.49362,1041.1378 c 0,-1.5544 0,-3.1088 0,-4.6634 0.22259,1.3717 2.17858,2.6208 3.48795,3.0123 -0.6302,0.5504 -2.85786,1.1009 -3.48795,1.6511 z"
         style="fill:#ffffff;fill-opacity:1;stroke:none"
         inkscape:connector-curvature="0" />
      <path
         id="path3309"
         d="m 269.15241,1040.7467 c -0.005,-0.399 -0.36799,-0.7189 -0.8113,-0.7145 -0.44321,0 -0.79869,0.3312 -0.7939,0.7301 l 0.44364,0 c -0.002,-0.1783 0.15695,-0.3245 0.35515,-0.3266 0.1982,0 0.3607,0.1412 0.36288,0.3196 l 0.44353,0 z"
         style="fill:#000000;fill-opacity:1;stroke:none"
         inkscape:connector-curvature="0" />
      <path
         id="path3311"
         d="m 273.40127,1041.1378 c 0,-1.5544 0,-3.1088 0,-4.6634 -0.22258,1.3717 -2.17847,2.6208 -3.48784,3.0123 0.63009,0.5504 2.85786,1.1009 3.48784,1.6511 z"
         style="fill:#ffffff;fill-opacity:1;stroke:none"
         inkscape:connector-curvature="0" />
      <path
         id="path3313"
         d="m 272.25592,1040.7467 c -0.005,-0.399 -0.3681,-0.7189 -0.8113,-0.7145 -0.44321,0 -0.79868,0.3312 -0.7939,0.7301 l 0.44364,0 c -0.002,-0.1783 0.15685,-0.3245 0.35505,-0.3266 0.19831,0 0.36081,0.1412 0.36287,0.3196 l 0.44364,0 z"
         style="fill:#000000;fill-opacity:1;stroke:none"
         inkscape:connector-curvature="0" />
      <path
         id="path3315"
         d="m 269.1351,1034.2655 c 0.19636,0 0.33839,1.1844 -0.0108,1.1844 -0.3004,0 -0.18328,-1.1844 0.0108,-1.1844 z"
         style="fill:#ffffff;fill-opacity:1;stroke:none"
         inkscape:connector-curvature="0" />
      <path
         id="path3317"
         d="m 269.89776,1033.0901 c 0.19635,0 0.33839,1.1845 -0.0109,1.1845 -0.3003,0 -0.18318,-1.1845 0.0109,-1.1845 z"
         style="fill:#ffffff;fill-opacity:1;stroke:none"
         inkscape:connector-curvature="0" />
      <path
         id="path3319"
         d="m 268.56434,1035.2681 c 0.19635,0 0.33839,1.1845 -0.0108,1.1845 -0.30041,0 -0.1833,-1.1845 0.0108,-1.1845 z"
         style="fill:#ffffff;fill-opacity:1;stroke:none"
         inkscape:connector-curvature="0" />
      <path
         id="path3321"
         d="m 267.99357,1036.2707 c 0.19635,0 0.3385,1.1845 -0.0108,1.1845 -0.30029,0 -0.18328,-1.1845 0.0108,-1.1845 z"
         style="fill:#ffffff;fill-opacity:1;stroke:none"
         inkscape:connector-curvature="0" />
      <path
         id="path3323"
         d="m 269.1351,1034.2655 c 0.19636,0 0.33839,1.1844 -0.0108,1.1844 -0.3004,0 -0.18328,-1.1844 0.0108,-1.1844 z"
         style="fill:#ffffff;fill-opacity:1;stroke:none"
         inkscape:connector-curvature="0" />
      <path
         id="path3325"
         d="m 268.56434,1035.2681 c 0.19635,0 0.33839,1.1845 -0.0108,1.1845 -0.30041,0 -0.1833,-1.1845 0.0108,-1.1845 z"
         style="fill:#ffffff;fill-opacity:1;stroke:none"
         inkscape:connector-curvature="0" />
      <path
         id="path3327"
         d="m 270.66923,1034.2655 c -0.19635,0 -0.33839,1.1844 0.0108,1.1844 0.3004,0 0.18329,-1.1844 -0.0108,-1.1844 z"
         style="fill:#ffffff;fill-opacity:1;stroke:none"
         inkscape:connector-curvature="0" />
      <path
         id="path3329"
         d="m 269.90658,1033.0901 c -0.19635,0 -0.3384,1.1845 0.0108,1.1845 0.3004,0 0.18329,-1.1845 -0.0108,-1.1845 z"
         style="fill:#ffffff;fill-opacity:1;stroke:none"
         inkscape:connector-curvature="0" />
      <path
         id="path3331"
         d="m 271.24,1035.2681 c -0.19636,0 -0.3385,1.1845 0.0108,1.1845 0.30029,0 0.18329,-1.1845 -0.0108,-1.1845 z"
         style="fill:#ffffff;fill-opacity:1;stroke:none"
         inkscape:connector-curvature="0" />
      <path
         id="path3333"
         d="m 271.81076,1036.2707 c -0.19635,0 -0.33849,1.1845 0.0108,1.1845 0.3003,0 0.18329,-1.1845 -0.0108,-1.1845 z"
         style="fill:#ffffff;fill-opacity:1;stroke:none"
         inkscape:connector-curvature="0" />
      <path
         id="path3335"
         d="m 270.66923,1034.2655 c -0.19635,0 -0.33839,1.1844 0.0108,1.1844 0.3004,0 0.18329,-1.1844 -0.0108,-1.1844 z"
         style="fill:#ffffff;fill-opacity:1;stroke:none"
         inkscape:connector-curvature="0" />
      <path
         id="path3337"
         d="m 271.24,1035.2681 c -0.19636,0 -0.3385,1.1845 0.0108,1.1845 0.30029,0 0.18329,-1.1845 -0.0108,-1.1845 z"
         style="fill:#ffffff;fill-opacity:1;stroke:none"
         inkscape:connector-curvature="0" />
    </g>
  </g>
</svg>
