<?xml version="1.0" encoding="UTF-8" standalone="no"?>
<!-- Created with Inkscape (http://www.inkscape.org/) -->

<svg
   xmlns:dc="http://purl.org/dc/elements/1.1/"
   xmlns:cc="http://creativecommons.org/ns#"
   xmlns:rdf="http://www.w3.org/1999/02/22-rdf-syntax-ns#"
   xmlns:svg="http://www.w3.org/2000/svg"
   xmlns="http://www.w3.org/2000/svg"
   xmlns:sodipodi="http://sodipodi.sourceforge.net/DTD/sodipodi-0.dtd"
   xmlns:inkscape="http://www.inkscape.org/namespaces/inkscape"
   width="283.46457"
   height="21.968504"
   id="svg2"
   version="1.1"
   inkscape:version="0.48.3.1 r9886"
   sodipodi:docname="dlugopis_v1.svg">
  <defs
     id="defs4" />
  <sodipodi:namedview
     id="base"
     pagecolor="#ffffff"
     bordercolor="#666666"
     borderopacity="1.0"
     inkscape:pageopacity="0.0"
     inkscape:pageshadow="2"
     inkscape:zoom="3.78"
     inkscape:cx="140.67085"
     inkscape:cy="3.9594753"
     inkscape:document-units="px"
     inkscape:current-layer="layer1"
     showgrid="false"
     units="mm"
     inkscape:window-width="1804"
     inkscape:window-height="704"
     inkscape:window-x="67"
     inkscape:window-y="126"
     inkscape:window-maximized="0"
     showguides="true"
     inkscape:guide-bbox="true" />
  <metadata
     id="metadata7">
    <rdf:RDF>
      <cc:Work
         rdf:about="">
        <dc:format>image/svg+xml</dc:format>
        <dc:type
           rdf:resource="http://purl.org/dc/dcmitype/StillImage" />
        <dc:title />
      </cc:Work>
    </rdf:RDF>
  </metadata>
  <g
     inkscape:label="Layer 1"
     inkscape:groupmode="layer"
     id="layer1"
     transform="translate(0,-1030.3937)">
    <rect
       style="fill:#000000;fill-opacity:1;stroke:none"
       id="rect5163"
       width="283.46457"
       height="21.968504"
       x="0"
       y="1030.3937" />
    <path
       inkscape:connector-curvature="0"
       style="fill:#ffffff;fill-opacity:1;stroke:none"
       d="m 15.362717,1034.3519 -2.475496,11.5766 2.620978,0 0.145723,-0.7282 c 0.391291,0.3338 0.773608,0.5795 1.143536,0.7341 0.373132,0.1549 0.73115,0.2336 1.076991,0.2307 0.452095,0 0.885818,-0.1151 1.310489,-0.3397 0.42192,-0.2213 0.819273,-0.537 1.195262,-0.9437 0.373052,-0.4064 0.715929,-0.8887 1.025693,-1.4439 0.30923,-0.5551 0.576268,-1.1648 0.803785,-1.8324 0.224579,-0.6673 0.397352,-1.3741 0.521792,-2.1176 0.121235,-0.7461 0.185057,-1.5106 0.185057,-2.2965 0.0029,-0.5157 -0.0454,-1.0161 -0.142598,-1.4954 -0.0972,-0.4826 -0.260896,-0.9315 -0.49135,-1.344 -0.230721,-0.4126 -0.54636,-0.7736 -0.946383,-1.0858 -0.400557,-0.3098 -0.901253,-0.5522 -1.501822,-0.7253 -0.600568,-0.1727 -1.322879,-0.2609 -2.160043,-0.2638 -0.612719,0 -1.222714,0.088 -1.832468,0.2609 -0.606763,0.1698 -1.183005,0.4064 -1.729204,0.7068 -0.545933,0.3034 -1.031301,0.6521 -1.453114,1.0527 -0.424537,0.4003 -0.758442,0.8281 -1.001019,1.2893 -0.242791,0.4611 -0.367177,0.9343 -0.373132,1.4227 0,0.434 0.0757,0.7798 0.224419,1.0404 0.151704,0.258 0.370168,0.4462 0.661399,0.5584 0.288241,0.1124 0.643001,0.1698 1.06185,0.1669 -0.0092,-0.049 -0.03351,-0.1122 -0.07301,-0.1883 -0.04243,-0.075 -0.08166,-0.1912 -0.121155,-0.3517 -0.03648,-0.161 -0.0576,-0.3944 -0.06081,-0.6977 0.0032,-0.6949 0.121396,-1.3139 0.352037,-1.8597 0.233631,-0.5461 0.567295,-1.0072 0.998028,-1.3896 0.433749,-0.3819 0.952631,-0.6732 1.553173,-0.8735 0.600834,-0.2003 1.271153,-0.3002 2.011489,-0.3002 0.521606,0 0.94641,0.079 1.277163,0.2366 0.327656,0.1576 0.585347,0.3883 0.764263,0.6946 0.179182,0.3033 0.303355,0.6764 0.373319,1.1194 0.06676,0.4401 0.09987,0.9464 0.09694,1.5168 0,0.5856 -0.03632,1.1862 -0.109219,1.7958 -0.0697,0.6131 -0.175711,1.2137 -0.315372,1.8023 -0.139661,0.5853 -0.309497,1.1375 -0.509508,1.6532 -0.203483,0.5156 -0.430733,0.9707 -0.691762,1.3621 -0.257959,0.3945 -0.5462,0.704 -0.858501,0.9285 -0.312595,0.2214 -0.649223,0.3365 -1.010205,0.3394 -0.173067,0 -0.345841,-0.027 -0.518908,-0.085 -0.172772,-0.061 -0.345813,-0.152 -0.518613,-0.2793 l 2.184022,-10.2113 -2.693718,0.364 z m 9.228406,2.4754 -1.92935,9.1012 2.620978,0 1.510901,-7.1352 c 0.136456,-0.1274 0.267038,-0.2337 0.391478,-0.3216 0.121235,-0.085 0.25155,-0.1516 0.388273,-0.1941 0.139394,-0.045 0.297213,-0.067 0.476129,-0.067 0.106281,0 0.178915,0.045 0.221374,0.1245 0.04273,0.079 0.07317,0.1789 0.09106,0.2972 0.02136,0.1183 0.05181,0.2366 0.08812,0.3549 0.03925,0.1215 0.109218,0.2184 0.206153,0.3004 0.100406,0.079 0.24888,0.1215 0.449158,0.1244 0.224312,0 0.418449,-0.045 0.588285,-0.1335 0.170103,-0.085 0.312701,-0.1973 0.427795,-0.3367 0.115627,-0.1426 0.203483,-0.2943 0.260896,-0.458 0.05768,-0.1669 0.08812,-0.3308 0.08812,-0.4916 0,-0.2337 -0.05448,-0.4369 -0.157819,-0.6099 -0.103077,-0.1728 -0.254754,-0.3092 -0.448891,-0.4064 -0.194137,-0.097 -0.430999,-0.1488 -0.703645,-0.1488 -0.255021,0 -0.506838,0.043 -0.752513,0.1215 -0.245675,0.082 -0.482538,0.188 -0.715929,0.3245 -0.233658,0.1396 -0.461175,0.2913 -0.679612,0.4644 l 0.200279,-0.9104 -2.621245,0 z m 11.831386,0 -1.310356,6.1886 c -0.05474,0.2187 -0.09133,0.419 -0.109485,0.6009 -0.230454,0.188 -0.455033,0.3428 -0.67347,0.4641 -0.221375,0.1244 -0.427795,0.1882 -0.618727,0.1912 -0.239801,0 -0.427795,-0.03 -0.558377,-0.091 -0.133252,-0.058 -0.227249,-0.1397 -0.279055,-0.243 -0.05154,-0.1028 -0.07584,-0.2243 -0.07263,-0.3579 0,-0.082 0.0088,-0.1727 0.0211,-0.267 0.01522,-0.097 0.03338,-0.1971 0.05154,-0.2975 l 1.310623,-6.1886 -2.621245,0 -1.310623,6.1886 c -0.07263,0.3461 -0.108951,0.6556 -0.108951,0.9288 0.0029,0.4547 0.094,0.8278 0.279054,1.1223 0.18212,0.2911 0.443017,0.5098 0.782689,0.6492 0.339939,0.1426 0.743167,0.2123 1.213421,0.2123 0.263833,0 0.542888,-0.076 0.837431,-0.2184 0.294276,-0.1426 0.594693,-0.3274 0.898049,-0.5581 0.303088,-0.2308 0.597631,-0.4826 0.885765,-0.7526 0.05768,0.352 0.18212,0.6404 0.379194,0.8647 0.194136,0.2275 0.448891,0.3942 0.764262,0.5037 0.315639,0.106 0.679612,0.1607 1.095123,0.1607 0.236863,0 0.48868,-0.064 0.755451,-0.1821 0.2641,-0.1212 0.534076,-0.2791 0.806989,-0.4764 0.276117,-0.1971 0.546092,-0.4185 0.81313,-0.658 0.266771,-0.2398 0.521793,-0.4796 0.764263,-0.7253 0.240067,-0.2424 0.461442,-0.4732 0.661453,-0.6855 0.200279,-0.2093 0.370115,-0.3882 0.512713,-0.5311 l -0.618727,0 c -0.18212,0.1488 -0.376256,0.3156 -0.579472,0.4978 -0.203216,0.1789 -0.412574,0.3549 -0.621932,0.5218 -0.20909,0.1669 -0.418715,0.3063 -0.621931,0.4155 -0.203216,0.1063 -0.397353,0.1639 -0.579473,0.1669 -0.239533,0 -0.427528,-0.03 -0.558109,-0.091 -0.133519,-0.058 -0.227517,-0.1397 -0.279055,-0.243 -0.05154,-0.1028 -0.07584,-0.2243 -0.0729,-0.3579 0,-0.082 0.0093,-0.1727 0.02136,-0.267 0.01522,-0.097 0.03338,-0.1971 0.05154,-0.2975 l 1.310356,-6.1886 -2.620978,0 z m 4.586911,0 -2.894157,13.6518 2.748355,-0.6524 0.946649,-4.444 c 0.27318,0.1728 0.552235,0.3092 0.834227,0.4032 0.285197,0.094 0.576535,0.1426 0.876953,0.1426 0.46705,0 0.909799,-0.088 1.325577,-0.2702 0.418715,-0.1819 0.803784,-0.4762 1.152803,-0.8858 0.348751,-0.4064 0.652374,-0.9464 0.906861,-1.6199 0.257959,-0.6734 0.458237,-1.4986 0.600835,-2.4754 0.03632,-0.2366 0.06356,-0.4612 0.08198,-0.6735 0.01816,-0.2125 0.02724,-0.4125 0.02724,-0.6037 0,-0.6249 -0.100139,-1.1224 -0.300418,-1.4987 -0.203216,-0.3762 -0.509508,-0.6462 -0.922082,-0.8128 -0.409636,-0.164 -0.931429,-0.246 -1.562439,-0.243 -0.227517,0 -0.448891,0.031 -0.664391,0.088 -0.215233,0.058 -0.418716,0.1397 -0.609648,0.2398 l 0.07263,-0.3461 -2.620979,0 z m 2.220422,7.7543 c -0.09694,0 -0.212296,0 -0.339673,-0.012 -0.12711,-0.01 -0.263833,-0.04 -0.406165,-0.085 -0.145802,-0.046 -0.291605,-0.1244 -0.437141,-0.2307 l 1.310623,-6.1309 c 0.172773,-0.1215 0.345814,-0.2155 0.518588,-0.2823 0.17304,-0.067 0.345814,-0.103 0.518854,-0.103 0.197341,0 0.370115,0.027 0.524997,0.097 0.151678,0.07 0.272913,0.1973 0.361036,0.3883 0.08785,0.1912 0.133251,0.4673 0.133251,0.8283 0,0.2184 -0.01816,0.4791 -0.05768,0.7856 -0.03605,0.3037 -0.09694,0.6583 -0.178915,1.0588 -0.148473,0.7218 -0.291339,1.3227 -0.430733,1.7988 -0.136456,0.4796 -0.279054,0.8556 -0.427794,1.1317 -0.145536,0.2761 -0.30923,0.4732 -0.485476,0.5886 -0.175978,0.1153 -0.375989,0.1698 -0.603772,0.1669 z m 10.739467,-7.7543 -0.109218,0.4735 c -0.166899,-0.1397 -0.358098,-0.2489 -0.570394,-0.3309 -0.212295,-0.082 -0.427794,-0.1212 -0.649169,-0.1244 -0.60671,0 -1.143724,0.1004 -1.616915,0.2913 -0.473191,0.1912 -0.885765,0.458 -1.237721,0.7979 -0.351956,0.3368 -0.64917,0.7312 -0.894845,1.1771 -0.245942,0.446 -0.443016,0.9253 -0.591756,1.438 -0.14874,0.5127 -0.257692,1.0404 -0.327388,1.5804 -0.06676,0.537 -0.100407,1.071 -0.100407,1.5958 -0.0029,0.2732 0.03365,0.5431 0.106281,0.8131 0.0729,0.2729 0.197074,0.5186 0.367178,0.7464 0.169836,0.2243 0.403494,0.4064 0.694833,0.5429 0.291071,0.1367 0.655044,0.2064 1.088714,0.2093 0.370381,-0.01 0.707116,-0.079 1.013409,-0.2213 0.306559,-0.1426 0.582677,-0.328 0.825147,-0.5523 0.242738,-0.2275 0.455033,-0.4644 0.636886,-0.7188 0.121502,0.4731 0.373319,0.8219 0.755717,1.0465 0.382132,0.2275 0.870544,0.3396 1.465238,0.3367 0.236596,0 0.488413,-0.064 0.755451,-0.1821 0.263833,-0.1212 0.533808,-0.2791 0.806988,-0.4764 0.275851,-0.1971 0.545826,-0.4155 0.812864,-0.6551 0.267038,-0.2395 0.521792,-0.4825 0.76453,-0.7282 0.239533,-0.2424 0.460908,-0.4732 0.661453,-0.6855 0.200012,-0.2125 0.370115,-0.3882 0.512713,-0.5311 l -0.618994,0 c -0.18212,0.1488 -0.376257,0.3156 -0.579473,0.4978 -0.203215,0.1789 -0.412573,0.3549 -0.621931,0.5218 -0.209358,0.1669 -0.418716,0.3063 -0.621932,0.4155 -0.203216,0.1063 -0.397352,0.1639 -0.579472,0.1669 -0.239533,0 -0.427528,-0.03 -0.55811,-0.091 -0.133519,-0.058 -0.227516,-0.1397 -0.279054,-0.243 -0.05154,-0.1028 -0.07611,-0.2243 -0.07263,-0.3579 0,-0.082 0.0088,-0.1727 0.0211,-0.267 0.01496,-0.097 0.03338,-0.1971 0.05154,-0.2975 l 1.310622,-6.1886 -2.621245,0 z m -1.182978,1.0377 c 0.130314,0 0.272913,0.021 0.430732,0.067 0.157553,0.048 0.312435,0.1364 0.460908,0.2609 l -1.019284,4.8232 c -0.05474,0.2187 -0.09079,0.419 -0.108952,0.6009 -0.11536,0.1727 -0.236863,0.3244 -0.36424,0.4611 -0.124439,0.1394 -0.254754,0.2457 -0.388273,0.3277 -0.136456,0.079 -0.27318,0.1183 -0.412574,0.1215 -0.157819,0 -0.315639,-0.027 -0.476128,-0.091 -0.161024,-0.067 -0.297481,-0.1942 -0.406699,-0.3822 -0.112423,-0.185 -0.169837,-0.4582 -0.172774,-0.819 0,-0.5007 0.04246,-1.0011 0.124173,-1.5079 0.08198,-0.5063 0.197341,-0.9918 0.345814,-1.453 0.151945,-0.458 0.327923,-0.8708 0.530872,-1.2316 0.20642,-0.361 0.430732,-0.6465 0.676674,-0.8556 0.245675,-0.2093 0.506571,-0.3185 0.779751,-0.3215 z m 6.589163,-4.314 -2.02041,9.4649 c -0.0729,0.3461 -0.109485,0.6556 -0.109485,0.9288 0.0032,0.4547 0.09426,0.8278 0.273179,1.1223 0.18212,0.2911 0.440079,0.5098 0.776547,0.6492 0.336735,0.1426 0.737292,0.2123 1.207279,0.2123 0.236863,0 0.488679,-0.064 0.755717,-0.1821 0.263834,-0.1212 0.533809,-0.2791 0.806722,-0.4764 0.276118,-0.1971 0.54636,-0.4185 0.813131,-0.658 0.266771,-0.2398 0.521792,-0.4796 0.76453,-0.7253 0.2398,-0.2424 0.461174,-0.4732 0.661186,-0.6855 0.200545,-0.2093 0.370382,-0.3882 0.512713,-0.5311 l -0.618994,0 c -0.181853,0.1488 -0.37599,0.3156 -0.579206,0.4978 -0.203216,0.1789 -0.412573,0.3549 -0.621931,0.5218 -0.209358,0.1669 -0.418716,0.3063 -0.621665,0.4155 -0.203483,0.1063 -0.397619,0.1639 -0.579472,0.1669 -0.233658,0 -0.418983,-0.03 -0.552235,-0.085 -0.133519,-0.058 -0.224579,-0.1365 -0.279055,-0.2366 -0.05474,-0.1002 -0.08198,-0.2185 -0.07904,-0.352 0,-0.07 0.0093,-0.1517 0.0243,-0.2427 0.01816,-0.091 0.03952,-0.2062 0.06676,-0.34 l 2.093311,-9.8288 -2.693879,0.3639 z m 12.286152,9.101 c -0.22725,0.3885 -0.518855,0.7132 -0.870544,0.9709 -0.351956,0.258 -0.743434,0.4521 -1.177104,0.5824 -0.43367,0.1306 -0.885765,0.1941 -1.356019,0.1941 -0.488412,0 -0.888702,-0.063 -1.204341,-0.197 -0.315639,-0.1303 -0.558377,-0.3338 -0.734088,-0.6099 -0.176245,-0.2762 -0.29748,-0.6278 -0.36424,-1.0586 -0.0697,-0.431 -0.103076,-0.9437 -0.100139,-1.5384 0,-0.5458 0.03952,-1.113 0.118565,-1.7077 0.07557,-0.5947 0.187728,-1.1832 0.336468,-1.7718 0.14874,-0.5856 0.33086,-1.1437 0.543155,-1.6684 0.2155,-0.525 0.45797,-0.9889 0.73115,-1.3956 0.272913,-0.4094 0.573331,-0.7279 0.897782,-0.9616 0.327923,-0.2336 0.676674,-0.3549 1.049726,-0.3578 0.288401,0 0.518855,0.057 0.688691,0.1605 0.169837,0.1033 0.294276,0.2278 0.376257,0.3762 0.08198,0.1485 0.133519,0.2914 0.157552,0.431 0.0243,0.1394 0.03659,0.2457 0.03365,0.3245 0,0.1153 -0.02136,0.2515 -0.06088,0.4067 -0.03925,0.1546 -0.0972,0.3092 -0.169837,0.4609 -0.0697,0.1546 -0.154615,0.2881 -0.251817,0.4005 -0.09693,0.1151 -0.203215,0.188 -0.318576,0.2244 0.115361,0.1305 0.236596,0.2307 0.358098,0.3004 0.121502,0.07 0.242471,0.1151 0.358098,0.1396 0.115093,0.024 0.224312,0.033 0.321514,0.033 0.30923,0 0.554905,-0.075 0.743167,-0.2213 0.187994,-0.1426 0.321513,-0.3397 0.406431,-0.5915 0.08492,-0.2486 0.127378,-0.537 0.12444,-0.8618 -0.0029,-0.4395 -0.08786,-0.816 -0.257959,-1.1252 -0.166898,-0.3128 -0.397352,-0.5643 -0.691628,-0.7555 -0.291338,-0.1941 -0.627806,-0.3367 -1.007,-0.4246 -0.379461,-0.091 -0.782956,-0.1335 -1.210484,-0.1335 -0.804051,0.01 -1.517043,0.1364 -2.13577,0.4003 -0.618994,0.2609 -1.152803,0.6219 -1.608102,1.0831 -0.451829,0.458 -0.831023,0.9891 -1.137582,1.5867 -0.30923,0.6006 -0.554905,1.2407 -0.737025,1.9203 -0.185058,0.6825 -0.315639,1.3712 -0.397353,2.0749 -0.08198,0.7039 -0.121502,1.3864 -0.118298,2.0538 0.0029,0.7434 0.08198,1.3832 0.236596,1.9144 0.154615,0.5338 0.363973,0.9768 0.631011,1.3317 0.267038,0.3517 0.57333,0.631 0.913003,0.8374 0.342877,0.2032 0.700975,0.3488 1.076964,0.4337 0.379461,0.085 0.755451,0.1274 1.12877,0.1244 0.345814,0 0.709787,-0.024 1.095123,-0.079 0.385068,-0.054 0.770404,-0.1488 1.158677,-0.282 0.391478,-0.1365 0.76453,-0.3247 1.125566,-0.5672 0.358098,-0.2427 0.685753,-0.5493 0.979762,-0.9223 0.297213,-0.3731 0.543155,-0.822 0.737292,-1.3531 l -0.418715,-0.1821 z m 5.715414,-5.8247 -0.109219,0.4735 c -0.166898,-0.1397 -0.35783,-0.2489 -0.570126,-0.3309 -0.212295,-0.082 -0.427795,-0.1212 -0.649436,-0.1244 -0.60671,0 -1.143724,0.1004 -1.616915,0.2913 -0.473192,0.1912 -0.885765,0.458 -1.237454,0.7979 -0.352224,0.3368 -0.649437,0.7312 -0.895112,1.1771 -0.245942,0.446 -0.443016,0.9253 -0.591756,1.438 -0.148473,0.5127 -0.257692,1.0404 -0.327389,1.5804 -0.06676,0.537 -0.100139,1.071 -0.100139,1.5958 -0.0032,0.2732 0.03338,0.5431 0.106014,0.8131 0.0729,0.2729 0.197341,0.5186 0.367177,0.7464 0.169837,0.2243 0.403495,0.4064 0.694833,0.5429 0.291072,0.1367 0.655045,0.2064 1.088981,0.2093 0.370115,-0.01 0.70685,-0.079 1.01341,-0.2213 0.306292,-0.1426 0.58241,-0.328 0.82488,-0.5523 0.242738,-0.2275 0.455033,-0.4644 0.637153,-0.7188 0.121235,0.4731 0.373052,0.8219 0.75545,1.0465 0.382399,0.2275 0.870544,0.3396 1.465238,0.3367 0.236596,0 0.488412,-0.064 0.75545,-0.1821 0.263834,-0.1212 0.533809,-0.2791 0.806989,-0.4764 0.276118,-0.1971 0.545826,-0.4155 0.813131,-0.6551 0.266771,-0.2395 0.521525,-0.4825 0.764263,-0.7282 0.239533,-0.2424 0.461174,-0.4732 0.661453,-0.6855 0.200011,-0.2125 0.370115,-0.3882 0.512713,-0.5311 l -0.618994,0 c -0.18212,0.1488 -0.376257,0.3156 -0.579473,0.4978 -0.202949,0.1789 -0.412573,0.3549 -0.621931,0.5218 -0.209358,0.1669 -0.418449,0.3063 -0.621932,0.4155 -0.202949,0.1063 -0.397085,0.1639 -0.579472,0.1669 -0.239533,0 -0.427528,-0.03 -0.55811,-0.091 -0.133519,-0.058 -0.227249,-0.1397 -0.279054,-0.243 -0.05154,-0.1028 -0.07584,-0.2243 -0.07264,-0.3579 0,-0.082 0.0088,-0.1727 0.0211,-0.267 0.01522,-0.097 0.03338,-0.1971 0.05154,-0.2975 l 1.310622,-6.1886 -2.621245,0 z m -1.182978,1.0377 c 0.130314,0 0.272913,0.021 0.430732,0.067 0.157819,0.048 0.312434,0.1364 0.461175,0.2609 l -1.019552,4.8232 c -0.05447,0.2187 -0.09079,0.419 -0.108951,0.6009 -0.11536,0.1727 -0.236863,0.3244 -0.36424,0.4611 -0.12444,0.1394 -0.254754,0.2457 -0.388273,0.3277 -0.136457,0.079 -0.27318,0.1183 -0.412574,0.1215 -0.157552,0 -0.315639,-0.027 -0.476129,-0.091 -0.161024,-0.067 -0.29748,-0.1942 -0.406699,-0.3822 -0.112155,-0.185 -0.169836,-0.4582 -0.172773,-0.819 0,-0.5007 0.04246,-1.0011 0.12444,-1.5079 0.08171,-0.5063 0.197074,-0.9918 0.345814,-1.453 0.151677,-0.458 0.327655,-0.8708 0.530604,-1.2316 0.206421,-0.361 0.430733,-0.6465 0.676675,-0.8556 0.245675,-0.2093 0.506571,-0.3185 0.779751,-0.3215 z m 17.000708,1.6746 c 0.0091,-0.073 0.01816,-0.1426 0.0243,-0.2093 0.0091,-0.067 0.01202,-0.1365 0.01202,-0.2094 -0.0029,-0.3124 -0.06356,-0.6067 -0.185058,-0.8799 -0.121235,-0.2761 -0.285196,-0.5186 -0.485208,-0.7311 -0.203483,-0.2123 -0.427795,-0.379 -0.673737,-0.4975 -0.245408,-0.1213 -0.494287,-0.1819 -0.749041,-0.1851 -0.297214,0 -0.600569,0.061 -0.907128,0.1699 -0.30656,0.1092 -0.606711,0.255 -0.904191,0.4371 -0.294009,0.1818 -0.576268,0.3789 -0.846244,0.5944 -0.136456,-0.2395 -0.300417,-0.4491 -0.494554,-0.6281 -0.194137,-0.1786 -0.403494,-0.3185 -0.631011,-0.4184 -0.224579,-0.1031 -0.448891,-0.1517 -0.676407,-0.1549 -0.260896,0 -0.527934,0.046 -0.794972,0.1338 -0.266771,0.085 -0.533809,0.2 -0.794705,0.3458 -0.260896,0.1456 -0.515918,0.3063 -0.758388,0.4852 l 0.200011,-0.9648 -2.620978,0 -1.929616,9.1012 2.621245,0 1.565376,-7.3537 c 0.178916,-0.1274 0.355161,-0.2246 0.527935,-0.2881 0.17304,-0.064 0.367177,-0.094 0.582409,-0.094 0.252084,0 0.452096,0.1001 0.603773,0.2913 0.151678,0.191 0.230721,0.4519 0.233659,0.7824 0,0.073 -0.0029,0.1488 -0.01228,0.2308 -0.0091,0.079 -0.0243,0.1607 -0.04246,0.2427 l -1.310623,6.1886 2.639404,0 1.34694,-6.3889 c 0.0091,-0.064 0.01842,-0.1274 0.0243,-0.1912 0.0091,-0.063 0.01202,-0.1274 0.01202,-0.1912 0,-0.1089 -0.0091,-0.2152 -0.0243,-0.3186 -0.01495,-0.103 -0.03952,-0.2093 -0.06676,-0.3185 0.170103,-0.1092 0.339939,-0.191 0.506838,-0.2454 0.169836,-0.055 0.351956,-0.082 0.54903,-0.082 0.251817,0 0.451829,0.1001 0.603506,0.2913 0.151678,0.191 0.230721,0.4519 0.233658,0.7824 0,0.073 -0.0029,0.1488 -0.01202,0.2308 -0.0091,0.079 -0.02403,0.1607 -0.04246,0.2427 l -0.691629,3.276 c -0.03632,0.1731 -0.06356,0.3341 -0.08198,0.4858 -0.01816,0.1516 -0.02724,0.2972 -0.02724,0.443 0.0032,0.4547 0.09106,0.8278 0.269975,1.1223 0.178916,0.2911 0.43367,0.5098 0.770672,0.6492 0.336735,0.1426 0.743167,0.2123 1.216358,0.2123 0.285197,-0.01 0.576268,-0.091 0.870811,-0.2547 0.294276,-0.164 0.585347,-0.3763 0.873748,-0.6404 0.288134,-0.2638 0.564252,-0.5488 0.828085,-0.8492 0.263834,-0.3033 0.506571,-0.5976 0.73115,-0.8799 0.227517,-0.282 0.421653,-0.525 0.591489,-0.725 l -0.855589,0 c -0.106014,0.2 -0.230454,0.4064 -0.373052,0.619 -0.142599,0.2152 -0.297214,0.4155 -0.46705,0.6035 -0.166899,0.1853 -0.342877,0.337 -0.524997,0.455 -0.181853,0.1154 -0.36424,0.176 -0.546092,0.179 -0.1912,0 -0.342877,-0.033 -0.451829,-0.1 -0.109218,-0.067 -0.185324,-0.1546 -0.230721,-0.267 -0.04246,-0.1125 -0.06382,-0.2369 -0.06382,-0.3792 0,-0.1093 0.0093,-0.2217 0.0243,-0.3368 0.01816,-0.1153 0.03952,-0.2275 0.06703,-0.337 l 0.746105,-3.4763 z m 2.257005,-2.7123 -2.893891,13.6518 2.748355,-0.6524 0.94665,-4.444 c 0.272913,0.1728 0.551967,0.3092 0.83396,0.4032 0.285463,0.094 0.576535,0.1426 0.876948,0.1426 0.46705,0 0.91007,-0.088 1.32558,-0.2702 0.41872,-0.1819 0.803793,-0.4762 1.152803,-0.8858 0.34902,-0.4064 0.65238,-0.9464 0.90713,-1.6199 0.25796,-0.6734 0.45797,-1.4986 0.60084,-2.4754 0.0361,-0.2366 0.0635,-0.4612 0.0817,-0.6735 0.0182,-0.2125 0.0275,-0.4125 0.0275,-0.6037 0,-0.6249 -0.10041,-1.1224 -0.30042,-1.4987 -0.20348,-0.3762 -0.50978,-0.6462 -0.92235,-0.8128 -0.40937,-0.164 -0.931433,-0.246 -1.562443,-0.243 -0.22725,0 -0.44889,0.031 -0.66439,0.088 -0.21523,0.058 -0.41845,0.1397 -0.60965,0.2398 l 0.0726,-0.3461 -2.620982,0 z m 2.220688,7.7543 c -0.0972,0 -0.212295,0 -0.339672,-0.012 -0.127378,-0.01 -0.263834,-0.04 -0.406432,-0.085 -0.145803,-0.046 -0.291606,-0.1244 -0.436875,-0.2307 l 1.310623,-6.1309 c 0.17277,-0.1215 0.34581,-0.2155 0.51859,-0.2823 0.17304,-0.067 0.34581,-0.103 0.51885,-0.103 0.19708,0 0.36985,0.027 0.52473,0.097 0.15168,0.07 0.27292,0.1973 0.36104,0.3883 0.0879,0.1912 0.13325,0.4673 0.13325,0.8283 0,0.2184 -0.0182,0.4791 -0.0574,0.7856 -0.0363,0.3037 -0.0972,0.6583 -0.17919,1.0588 -0.14847,0.7218 -0.29107,1.3227 -0.43073,1.7988 -0.13645,0.4796 -0.27905,0.8556 -0.42779,1.1317 -0.14554,0.2761 -0.30923,0.4732 -0.48521,0.5886 -0.17598,0.1153 -0.37626,0.1698 -0.603774,0.1669 z"
       id="path3261" />
    <path
       inkscape:connector-curvature="0"
       style="fill:#ffffff;fill-opacity:1;stroke:none"
       d="m 126.35521,1042.7537 0.0311,0 1.02277,-5.2309 1.59365,0 -1.79968,7.7083 -1.4348,0 -1.42025,-5.0776 -0.0309,0 -1.41305,5.0776 -1.43475,0 -1.79969,-7.7083 1.59183,0 1.02824,5.2256 0.0311,0 1.38765,-5.2256 1.24843,0 1.39853,5.2309 z m 18.1312,-0.6035 0,3.0809 -1.5452,0 0,-7.7083 2.66677,0 c 0.87849,0 1.56707,0.2001 2.06208,0.6009 0.49703,0.4019 0.74432,0.9597 0.74432,1.6749 0,0.3957 -0.10444,0.7376 -0.31439,1.0254 -0.21145,0.2871 -0.51647,0.5201 -0.9195,0.6951 0.45524,0.1365 0.78221,0.3595 0.98268,0.6721 0.19898,0.3149 0.29802,0.7034 0.29802,1.166 l 0,0.565 c 0,0.2172 0.0289,0.4417 0.0881,0.6758 0.0576,0.236 0.15713,0.4084 0.29838,0.5207 l 0,0.1097 -1.59396,0 c -0.14091,-0.1106 -0.23132,-0.3002 -0.2727,-0.5617 -0.0397,-0.26 -0.0599,-0.5137 -0.0599,-0.7578 l 0,-0.5435 c 0,-0.3855 -0.1044,-0.6841 -0.31634,-0.8973 -0.20911,-0.2142 -0.50598,-0.3207 -0.89065,-0.3207 l -1.2284,0 z m 0,-1.1907 1.09661,0 c 0.4334,0 0.75518,-0.089 0.96862,-0.2766 0.21143,-0.1828 0.316,-0.4562 0.316,-0.8151 0,-0.3525 -0.1062,-0.6324 -0.31985,-0.8417 -0.21305,-0.2081 -0.5259,-0.3112 -0.93981,-0.3112 l -1.12157,0 0,2.2446 z m 24.71682,1.1102 c 0,0.949 -0.29808,1.7318 -0.89454,2.3482 -0.59608,0.6158 -1.37358,0.9248 -2.32884,0.9248 -0.95426,0 -1.72588,-0.309 -2.32043,-0.927 -0.59257,-0.6189 -0.88869,-1.4004 -0.88869,-2.346 l 0,-1.3868 c 0,-0.9414 0.29612,-1.7222 0.88713,-2.3422 0.59062,-0.6194 1.3603,-0.9284 2.31095,-0.9284 0.9558,0 1.73486,0.309 2.33442,0.9284 0.59999,0.62 0.9,1.4008 0.9,2.3422 l 0,1.3868 z m -1.54131,-1.396 c 0,-0.602 -0.14983,-1.093 -0.44979,-1.4786 -0.30003,-0.384 -0.71393,-0.5758 -1.24332,-0.5758 -0.52233,0 -0.92877,0.1918 -1.22175,0.5758 -0.2907,0.3856 -0.435,0.8766 -0.435,1.4786 l 0,1.396 c 0,0.6113 0.14596,1.1079 0.43882,1.4932 0.29264,0.3842 0.70303,0.5765 1.22897,0.5765 0.52925,0 0.94123,-0.1923 1.23776,-0.5765 0.29605,-0.3853 0.44431,-0.8819 0.44431,-1.4932 l 0,-1.396 z m 21.66341,2.0058 0.007,0.032 c 0.009,0.8235 -0.2364,1.4663 -0.75137,1.9335 -0.51689,0.4655 -1.22692,0.6987 -2.13386,0.6987 -0.92535,0 -1.67167,-0.2979 -2.23924,-0.8924 -0.56876,-0.5947 -0.85241,-1.3649 -0.85241,-2.3057 l 0,-1.5304 c 0,-0.9381 0.27623,-1.7074 0.83095,-2.306 0.55471,-0.598 1.28109,-0.8959 2.18107,-0.8959 0.93938,0 1.67322,0.2295 2.20256,0.6888 0.52977,0.4586 0.78609,1.104 0.77317,1.9367 l -0.008,0.033 -1.50304,0 c 0,-0.4948 -0.11927,-0.863 -0.35776,-1.1034 -0.23873,-0.242 -0.60699,-0.3634 -1.10403,-0.3634 -0.46264,0 -0.82392,0.1862 -1.08216,0.5581 -0.26054,0.3726 -0.38891,0.8531 -0.38891,1.4427 l 0,1.5409 c 0,0.5929 0.13568,1.0768 0.4104,1.4508 0.27306,0.3741 0.65224,0.56 1.14028,0.56 0.46224,0 0.80755,-0.1234 1.03539,-0.3616 0.22735,-0.2418 0.34128,-0.6143 0.34128,-1.1145 l 1.49799,0 z m 15.74404,-2.1283 1.28456,-0.3714 0,1.0326 -1.28456,0.37 0,2.4627 3.4512,0 0,1.186 -4.99845,0 0,-3.2022 -0.60893,0.1728 0,-1.0314 0.60893,-0.1749 0,-3.4726 1.54725,0 0,3.0284 z m 21.13166,3.0174 -2.4986,0 -0.51886,1.6625 -1.61351,0 2.59813,-7.7083 1.58303,0 2.58952,7.7083 -1.61539,0 -0.52432,-1.6625 z m -2.11747,-1.2128 1.7418,0 -0.85121,-2.7159 -0.0324,0 -0.85785,2.7159 z m 23.99199,0.3979 0.0311,0 1.02282,-5.2309 1.59363,0 -1.79959,7.7083 -1.4348,0 -1.42045,-5.0776 -0.0308,0 -1.4129,5.0776 -1.43481,0 -1.7996,-7.7083 1.59166,0 1.02829,5.2256 0.0311,0 1.38762,-5.2256 1.24832,0 1.3986,5.2309 z"
       id="path3263" />
    <g
       id="g5204"
       transform="translate(0,-1.279098)">
      <path
         id="path3265"
         d="m 267.90149,1049.95 0.59417,0 0,-2.8581 -0.59417,0 0,2.8581 z"
         style="fill:#ffffff;fill-opacity:1;stroke:none"
         inkscape:connector-curvature="0" />
      <path
         id="path3267"
         d="m 271.30933,1049.95 0.59405,0 0,-2.7464 -0.59405,0 0,2.7464 z"
         style="fill:#ffffff;fill-opacity:1;stroke:none"
         inkscape:connector-curvature="0" />
      <path
         id="path3269"
         d="m 267.9016,1049.2345 4.00189,0 0,1.6746 c -0.56967,-0.2814 -1.22392,-0.442 -1.91974,-0.442 -0.73066,0 -1.41517,0.1771 -2.00444,0.4852 l -0.0777,0 0,-1.7178 z"
         style="fill:#ffffff;fill-opacity:1;stroke:none"
         inkscape:connector-curvature="0" />
      <path
         id="path3271"
         d="m 269.92921,1046.8536 c 0.30106,0 0.54498,0.2195 0.54498,0.4905 0,0.2709 -0.24392,0.4905 -0.54498,0.4905 -0.30094,0 -0.54497,-0.2196 -0.54497,-0.4905 0,-0.271 0.24403,-0.4905 0.54497,-0.4905 z"
         style="fill:#ffffff;fill-opacity:1;stroke:none"
         inkscape:connector-curvature="0" />
      <path
         id="path3273"
         d="m 269.92921,1048.0464 c 0.30106,0 0.54498,0.2194 0.54498,0.4903 0,0.2711 -0.24392,0.4905 -0.54498,0.4905 -0.30094,0 -0.54497,-0.2194 -0.54497,-0.4905 0,-0.2709 0.24403,-0.4903 0.54497,-0.4903 z"
         style="fill:#ffffff;fill-opacity:1;stroke:none"
         inkscape:connector-curvature="0" />
      <path
         id="path3275"
         d="m 265.78648,1052.224 c 0.40075,-0.6453 1.16722,-1.0823 2.04721,-1.0823 0.87987,0 1.64644,0.437 2.04709,1.0823 -0.55771,-0.1869 -1.2704,-0.2997 -2.04709,-0.2997 -0.77681,0 -1.48951,0.1128 -2.04721,0.2997 z"
         style="fill:#ffffff;fill-opacity:1;stroke:none"
         inkscape:connector-curvature="0" />
      <path
         id="path3277"
         d="m 269.95708,1052.224 c 0.40065,-0.6453 1.16711,-1.0823 2.04709,-1.0823 0.87988,0 1.64645,0.437 2.04699,1.0823 -0.55749,-0.1869 -1.27029,-0.2997 -2.04699,-0.2997 -0.7768,0 -1.48949,0.1128 -2.04709,0.2997 z"
         style="fill:#ffffff;fill-opacity:1;stroke:none"
         inkscape:connector-curvature="0" />
      <path
         id="path3279"
         d="m 271.89849,1049.9957 c 0.49469,-0.2487 0.82915,-0.7246 0.82915,-1.2709 0,-0.5462 -0.33446,-1.022 -0.82915,-1.2707 0.14334,0.3461 0.22943,0.7885 0.22943,1.2707 0,0.4824 -0.0861,0.9247 -0.22943,1.2709 z"
         style="fill:#ffffff;fill-opacity:1;stroke:none"
         inkscape:connector-curvature="0" />
      <path
         id="path3281"
         d="m 267.90149,1049.9957 c -0.49468,-0.2487 -0.82926,-0.7246 -0.82926,-1.2709 0,-0.5462 0.33458,-1.022 0.82926,-1.2707 -0.14334,0.3461 -0.22954,0.7885 -0.22954,1.2707 0,0.4824 0.0862,0.9247 0.22954,1.2709 z"
         style="fill:#ffffff;fill-opacity:1;stroke:none"
         inkscape:connector-curvature="0" />
      <path
         id="path3283"
         d="m 267.39037,1046.1863 -0.34133,0.3254 1.35171,1.3815 0.90023,-0.8876 c -0.71346,-0.1345 -1.36477,-0.4206 -1.91061,-0.8193 z"
         style="fill:#ffffff;fill-opacity:1;stroke:none"
         inkscape:connector-curvature="0" />
      <path
         id="path3285"
         d="m 272.48504,1046.1863 0.34133,0.3254 -1.35171,1.3815 -0.90023,-0.8876 c 0.71345,-0.1345 1.36488,-0.4206 1.91061,-0.8193 z"
         style="fill:#ffffff;fill-opacity:1;stroke:none"
         inkscape:connector-curvature="0" />
      <path
         id="path3287"
         d="m 269.92889,1034.5978 c 0.62518,1.777 3.45115,5.8156 3.88434,7.3786 l -4.1e-4,-3e-4 c 0.10928,0.3294 0.16806,0.6782 0.16806,1.0396 0,2.0053 -1.80601,3.6308 -4.034,3.6308 -2.22811,0 -4.03422,-1.6255 -4.03422,-3.6308 0,-0.7318 0.24097,-1.4133 0.65489,-1.9834 0.88326,-1.3176 2.82586,-4.9131 3.36137,-6.4345 z"
         style="fill:#ffffff;fill-opacity:1;stroke:none"
         inkscape:connector-curvature="0" />
      <path
         id="path3289"
         d="m 265.93635,1043.415 c -0.44004,-0.048 -0.75296,-0.409 -0.69909,-0.805 0.054,-0.3957 0.45453,-0.6776 0.89446,-0.629 l -0.054,0.3964 c -0.19679,-0.024 -0.37594,0.1041 -0.39999,0.2812 -0.0242,0.1773 0.11581,0.3385 0.31259,0.3603 l -0.054,0.3961 z"
         style="fill:#ffffff;fill-opacity:1;stroke:none"
         inkscape:connector-curvature="0" />
      <path
         id="path3291"
         d="m 273.9482,1043.415 c 0.43994,-0.048 0.75296,-0.409 0.69898,-0.805 -0.0539,-0.3957 -0.45442,-0.6776 -0.89436,-0.629 l 0.054,0.3964 c 0.19679,-0.024 0.37583,0.1041 0.39999,0.2812 0.0242,0.1773 -0.11591,0.3385 -0.31259,0.3603 l 0.054,0.3961 z"
         style="fill:#ffffff;fill-opacity:1;stroke:none"
         inkscape:connector-curvature="0" />
      <path
         id="path3293"
         d="m 270.78939,1043.2983 c -0.005,-0.3988 -0.3681,-0.7188 -0.81131,-0.7146 -0.4432,0 -0.79868,0.3315 -0.79389,0.7302 l 0.44364,0 c -0.002,-0.1784 0.15684,-0.3247 0.35504,-0.3264 0.19831,0 0.36081,0.141 0.36288,0.3194 l 0.44364,0 z"
         style="fill:#000000;fill-opacity:1;stroke:none"
         inkscape:connector-curvature="0" />
      <path
         id="path3295"
         d="m 269.17973,1042.4565 c 0.51504,-0.3312 0.98284,-0.3569 1.56569,0.01 0.2954,0.1846 0.52473,0.3712 0.91993,0.3712 0.56903,0 1.0304,-0.4154 1.0304,-0.9275 0,-0.512 -0.64249,-0.9273 -1.0304,-0.9273 -0.34786,0 -0.50851,0.095 -0.78279,0.2387 -0.69996,0.3661 -1.1189,0.4008 -1.78305,0.024 -0.28549,-0.1618 -0.49447,-0.2631 -0.85473,-0.2631 -0.38802,0 -1.03052,0.4153 -1.03052,0.9274 0,0.5121 0.46149,0.9274 1.03052,0.9274 0.40097,0 0.63814,-0.1873 0.93495,-0.378 z"
         style="fill:#000000;fill-opacity:1;stroke:none"
         inkscape:connector-curvature="0" />
      <path
         id="path3297"
         d="m 272.56612,1043.9874 c 0.2978,-0.035 0.59918,-0.2091 0.90393,-0.5185 -0.17197,0.9126 -0.67362,1.5328 -1.76574,1.5197 -0.52929,-0.01 -1.20128,-0.2492 -1.53542,-0.6327 -0.2658,-0.3051 -0.34514,-0.8164 0.0528,-1.0465 0.16043,-0.092 0.44745,-0.082 0.70584,-0.027 0.28974,0.061 0.49316,0.1535 0.68255,0.3215 0.2795,0.2478 0.51612,0.4394 0.95606,0.3843 z"
         style="fill:#000000;fill-opacity:1;stroke:none"
         inkscape:connector-curvature="0" />
      <path
         id="path3299"
         d="m 267.3107,1043.9874 c -0.2979,-0.035 -0.59918,-0.2091 -0.90393,-0.5185 0.17197,0.9126 0.67362,1.5328 1.76574,1.5197 0.5293,-0.01 1.20128,-0.2492 1.53532,-0.6327 0.2659,-0.3051 0.34525,-0.8164 -0.0527,-1.0465 -0.16054,-0.092 -0.44756,-0.082 -0.70584,-0.027 -0.28963,0.061 -0.49327,0.1535 -0.68254,0.3215 -0.27962,0.2478 -0.51613,0.4394 -0.95607,0.3843 z"
         style="fill:#000000;fill-opacity:1;stroke:none"
         inkscape:connector-curvature="0" />
      <path
         id="path3301"
         d="m 269.73276,1045.3264 c -0.44179,-0.01 -0.79564,-0.3321 -0.79085,-0.73 l 0.44364,0 c -0.002,0.1758 0.15271,0.3205 0.34721,0.3262 l 0,0.3994 z"
         style="fill:#000000;fill-opacity:1;stroke:none"
         inkscape:connector-curvature="0" />
      <path
         id="path3303"
         d="m 270.15832,1045.3264 c 0.44179,-0.01 0.79564,-0.3321 0.79085,-0.73 l -0.44364,0 c 0.002,0.1758 -0.1527,0.3205 -0.34721,0.3262 l 0,0.3994 z"
         style="fill:#000000;fill-opacity:1;stroke:none"
         inkscape:connector-curvature="0" />
      <path
         id="path3305"
         d="m 269.73276,1044.9269 0.44559,0 0,0.3989 -0.44559,0 0,-0.3989 z"
         style="fill:#0a0a0a;fill-opacity:1;stroke:none"
         inkscape:connector-curvature="0" />
      <path
         id="path3307"
         d="m 266.49362,1041.1378 c 0,-1.5544 0,-3.1088 0,-4.6634 0.22259,1.3717 2.17858,2.6208 3.48795,3.0123 -0.6302,0.5504 -2.85786,1.1009 -3.48795,1.6511 z"
         style="fill:#ffffff;fill-opacity:1;stroke:none"
         inkscape:connector-curvature="0" />
      <path
         id="path3309"
         d="m 269.15241,1040.7467 c -0.005,-0.399 -0.36799,-0.7189 -0.8113,-0.7145 -0.44321,0 -0.79869,0.3312 -0.7939,0.7301 l 0.44364,0 c -0.002,-0.1783 0.15695,-0.3245 0.35515,-0.3266 0.1982,0 0.3607,0.1412 0.36288,0.3196 l 0.44353,0 z"
         style="fill:#000000;fill-opacity:1;stroke:none"
         inkscape:connector-curvature="0" />
      <path
         id="path3311"
         d="m 273.40127,1041.1378 c 0,-1.5544 0,-3.1088 0,-4.6634 -0.22258,1.3717 -2.17847,2.6208 -3.48784,3.0123 0.63009,0.5504 2.85786,1.1009 3.48784,1.6511 z"
         style="fill:#ffffff;fill-opacity:1;stroke:none"
         inkscape:connector-curvature="0" />
      <path
         id="path3313"
         d="m 272.25592,1040.7467 c -0.005,-0.399 -0.3681,-0.7189 -0.8113,-0.7145 -0.44321,0 -0.79868,0.3312 -0.7939,0.7301 l 0.44364,0 c -0.002,-0.1783 0.15685,-0.3245 0.35505,-0.3266 0.19831,0 0.36081,0.1412 0.36287,0.3196 l 0.44364,0 z"
         style="fill:#000000;fill-opacity:1;stroke:none"
         inkscape:connector-curvature="0" />
      <path
         id="path3315"
         d="m 269.1351,1034.2655 c 0.19636,0 0.33839,1.1844 -0.0108,1.1844 -0.3004,0 -0.18328,-1.1844 0.0108,-1.1844 z"
         style="fill:#ffffff;fill-opacity:1;stroke:none"
         inkscape:connector-curvature="0" />
      <path
         id="path3317"
         d="m 269.89776,1033.0901 c 0.19635,0 0.33839,1.1845 -0.0109,1.1845 -0.3003,0 -0.18318,-1.1845 0.0109,-1.1845 z"
         style="fill:#ffffff;fill-opacity:1;stroke:none"
         inkscape:connector-curvature="0" />
      <path
         id="path3319"
         d="m 268.56434,1035.2681 c 0.19635,0 0.33839,1.1845 -0.0108,1.1845 -0.30041,0 -0.1833,-1.1845 0.0108,-1.1845 z"
         style="fill:#ffffff;fill-opacity:1;stroke:none"
         inkscape:connector-curvature="0" />
      <path
         id="path3321"
         d="m 267.99357,1036.2707 c 0.19635,0 0.3385,1.1845 -0.0108,1.1845 -0.30029,0 -0.18328,-1.1845 0.0108,-1.1845 z"
         style="fill:#ffffff;fill-opacity:1;stroke:none"
         inkscape:connector-curvature="0" />
      <path
         id="path3323"
         d="m 269.1351,1034.2655 c 0.19636,0 0.33839,1.1844 -0.0108,1.1844 -0.3004,0 -0.18328,-1.1844 0.0108,-1.1844 z"
         style="fill:#ffffff;fill-opacity:1;stroke:none"
         inkscape:connector-curvature="0" />
      <path
         id="path3325"
         d="m 268.56434,1035.2681 c 0.19635,0 0.33839,1.1845 -0.0108,1.1845 -0.30041,0 -0.1833,-1.1845 0.0108,-1.1845 z"
         style="fill:#ffffff;fill-opacity:1;stroke:none"
         inkscape:connector-curvature="0" />
      <path
         id="path3327"
         d="m 270.66923,1034.2655 c -0.19635,0 -0.33839,1.1844 0.0108,1.1844 0.3004,0 0.18329,-1.1844 -0.0108,-1.1844 z"
         style="fill:#ffffff;fill-opacity:1;stroke:none"
         inkscape:connector-curvature="0" />
      <path
         id="path3329"
         d="m 269.90658,1033.0901 c -0.19635,0 -0.3384,1.1845 0.0108,1.1845 0.3004,0 0.18329,-1.1845 -0.0108,-1.1845 z"
         style="fill:#ffffff;fill-opacity:1;stroke:none"
         inkscape:connector-curvature="0" />
      <path
         id="path3331"
         d="m 271.24,1035.2681 c -0.19636,0 -0.3385,1.1845 0.0108,1.1845 0.30029,0 0.18329,-1.1845 -0.0108,-1.1845 z"
         style="fill:#ffffff;fill-opacity:1;stroke:none"
         inkscape:connector-curvature="0" />
      <path
         id="path3333"
         d="m 271.81076,1036.2707 c -0.19635,0 -0.33849,1.1845 0.0108,1.1845 0.3003,0 0.18329,-1.1845 -0.0108,-1.1845 z"
         style="fill:#ffffff;fill-opacity:1;stroke:none"
         inkscape:connector-curvature="0" />
      <path
         id="path3335"
         d="m 270.66923,1034.2655 c -0.19635,0 -0.33839,1.1844 0.0108,1.1844 0.3004,0 0.18329,-1.1844 -0.0108,-1.1844 z"
         style="fill:#ffffff;fill-opacity:1;stroke:none"
         inkscape:connector-curvature="0" />
      <path
         id="path3337"
         d="m 271.24,1035.2681 c -0.19636,0 -0.3385,1.1845 0.0108,1.1845 0.30029,0 0.18329,-1.1845 -0.0108,-1.1845 z"
         style="fill:#ffffff;fill-opacity:1;stroke:none"
         inkscape:connector-curvature="0" />
    </g>
  </g>
</svg>
